<?xml version="1.0" encoding="utf-8" standalone="no"?>
<!DOCTYPE svg PUBLIC "-//W3C//DTD SVG 1.1//EN"
  "http://www.w3.org/Graphics/SVG/1.1/DTD/svg11.dtd">
<svg xmlns:xlink="http://www.w3.org/1999/xlink" width="720pt" height="720pt" viewBox="0 0 720 720" xmlns="http://www.w3.org/2000/svg" version="1.1">
 <metadata>
  <rdf:RDF xmlns:dc="http://purl.org/dc/elements/1.1/" xmlns:cc="http://creativecommons.org/ns#" xmlns:rdf="http://www.w3.org/1999/02/22-rdf-syntax-ns#">
   <cc:Work>
    <dc:type rdf:resource="http://purl.org/dc/dcmitype/StillImage"/>
    <dc:date>2024-10-13T10:49:58.407101</dc:date>
    <dc:format>image/svg+xml</dc:format>
    <dc:creator>
     <cc:Agent>
      <dc:title>Matplotlib v3.7.5, https://matplotlib.org/</dc:title>
     </cc:Agent>
    </dc:creator>
   </cc:Work>
  </rdf:RDF>
 </metadata>
 <defs>
  <style type="text/css">*{stroke-linejoin: round; stroke-linecap: butt}</style>
 </defs>
 <g id="figure_1">
  <g id="patch_1">
   <path d="M 0 720 
L 720 720 
L 720 0 
L 0 0 
z
" style="fill: #ffffff"/>
  </g>
  <g id="axes_1">
   <g id="patch_2">
    <path d="M 50.87 337.27 
L 709.2 337.27 
L 709.2 26.88 
L 50.87 26.88 
z
" style="fill: #ffffff"/>
   </g>
   <g id="matplotlib.axis_1">
    <g id="xtick_1">
     <g id="line2d_1">
      <defs>
       <path id="m7598e84da7" d="M 0 0 
L 0 3.5 
" style="stroke: #000000; stroke-width: 0.8"/>
      </defs>
      <g>
       <use xlink:href="#m7598e84da7" x="80.794091" y="337.27" style="stroke: #000000; stroke-width: 0.8"/>
      </g>
     </g>
    </g>
    <g id="xtick_2">
     <g id="line2d_2">
      <g>
       <use xlink:href="#m7598e84da7" x="201.699509" y="337.27" style="stroke: #000000; stroke-width: 0.8"/>
      </g>
     </g>
    </g>
    <g id="xtick_3">
     <g id="line2d_3">
      <g>
       <use xlink:href="#m7598e84da7" x="322.604927" y="337.27" style="stroke: #000000; stroke-width: 0.8"/>
      </g>
     </g>
    </g>
    <g id="xtick_4">
     <g id="line2d_4">
      <g>
       <use xlink:href="#m7598e84da7" x="443.510344" y="337.27" style="stroke: #000000; stroke-width: 0.8"/>
      </g>
     </g>
    </g>
    <g id="xtick_5">
     <g id="line2d_5">
      <g>
       <use xlink:href="#m7598e84da7" x="564.415762" y="337.27" style="stroke: #000000; stroke-width: 0.8"/>
      </g>
     </g>
    </g>
    <g id="xtick_6">
     <g id="line2d_6">
      <g>
       <use xlink:href="#m7598e84da7" x="685.32118" y="337.27" style="stroke: #000000; stroke-width: 0.8"/>
      </g>
     </g>
    </g>
   </g>
   <g id="matplotlib.axis_2">
    <g id="ytick_1">
     <g id="line2d_7">
      <defs>
       <path id="m350a5d52a3" d="M 0 0 
L -3.5 0 
" style="stroke: #000000; stroke-width: 0.8"/>
      </defs>
      <g>
       <use xlink:href="#m350a5d52a3" x="50.87" y="291.718138" style="stroke: #000000; stroke-width: 0.8"/>
      </g>
     </g>
     <g id="text_1">
      <!-- 100 -->
      <g transform="translate(24.7825 295.517356) scale(0.1 -0.1)">
       <defs>
        <path id="DejaVuSans-31" d="M 794 531 
L 1825 531 
L 1825 4091 
L 703 3866 
L 703 4441 
L 1819 4666 
L 2450 4666 
L 2450 531 
L 3481 531 
L 3481 0 
L 794 0 
L 794 531 
z
" transform="scale(0.015625)"/>
        <path id="DejaVuSans-30" d="M 2034 4250 
Q 1547 4250 1301 3770 
Q 1056 3291 1056 2328 
Q 1056 1369 1301 889 
Q 1547 409 2034 409 
Q 2525 409 2770 889 
Q 3016 1369 3016 2328 
Q 3016 3291 2770 3770 
Q 2525 4250 2034 4250 
z
M 2034 4750 
Q 2819 4750 3233 4129 
Q 3647 3509 3647 2328 
Q 3647 1150 3233 529 
Q 2819 -91 2034 -91 
Q 1250 -91 836 529 
Q 422 1150 422 2328 
Q 422 3509 836 4129 
Q 1250 4750 2034 4750 
z
" transform="scale(0.015625)"/>
       </defs>
       <use xlink:href="#DejaVuSans-31"/>
       <use xlink:href="#DejaVuSans-30" x="63.623047"/>
       <use xlink:href="#DejaVuSans-30" x="127.246094"/>
      </g>
     </g>
    </g>
    <g id="ytick_2">
     <g id="line2d_8">
      <g>
       <use xlink:href="#m350a5d52a3" x="50.87" y="245.052798" style="stroke: #000000; stroke-width: 0.8"/>
      </g>
     </g>
     <g id="text_2">
      <!-- 150 -->
      <g transform="translate(24.7825 248.852017) scale(0.1 -0.1)">
       <defs>
        <path id="DejaVuSans-35" d="M 691 4666 
L 3169 4666 
L 3169 4134 
L 1269 4134 
L 1269 2991 
Q 1406 3038 1543 3061 
Q 1681 3084 1819 3084 
Q 2600 3084 3056 2656 
Q 3513 2228 3513 1497 
Q 3513 744 3044 326 
Q 2575 -91 1722 -91 
Q 1428 -91 1123 -41 
Q 819 9 494 109 
L 494 744 
Q 775 591 1075 516 
Q 1375 441 1709 441 
Q 2250 441 2565 725 
Q 2881 1009 2881 1497 
Q 2881 1984 2565 2268 
Q 2250 2553 1709 2553 
Q 1456 2553 1204 2497 
Q 953 2441 691 2322 
L 691 4666 
z
" transform="scale(0.015625)"/>
       </defs>
       <use xlink:href="#DejaVuSans-31"/>
       <use xlink:href="#DejaVuSans-35" x="63.623047"/>
       <use xlink:href="#DejaVuSans-30" x="127.246094"/>
      </g>
     </g>
    </g>
    <g id="ytick_3">
     <g id="line2d_9">
      <g>
       <use xlink:href="#m350a5d52a3" x="50.87" y="198.387459" style="stroke: #000000; stroke-width: 0.8"/>
      </g>
     </g>
     <g id="text_3">
      <!-- 200 -->
      <g transform="translate(24.7825 202.186678) scale(0.1 -0.1)">
       <defs>
        <path id="DejaVuSans-32" d="M 1228 531 
L 3431 531 
L 3431 0 
L 469 0 
L 469 531 
Q 828 903 1448 1529 
Q 2069 2156 2228 2338 
Q 2531 2678 2651 2914 
Q 2772 3150 2772 3378 
Q 2772 3750 2511 3984 
Q 2250 4219 1831 4219 
Q 1534 4219 1204 4116 
Q 875 4013 500 3803 
L 500 4441 
Q 881 4594 1212 4672 
Q 1544 4750 1819 4750 
Q 2544 4750 2975 4387 
Q 3406 4025 3406 3419 
Q 3406 3131 3298 2873 
Q 3191 2616 2906 2266 
Q 2828 2175 2409 1742 
Q 1991 1309 1228 531 
z
" transform="scale(0.015625)"/>
       </defs>
       <use xlink:href="#DejaVuSans-32"/>
       <use xlink:href="#DejaVuSans-30" x="63.623047"/>
       <use xlink:href="#DejaVuSans-30" x="127.246094"/>
      </g>
     </g>
    </g>
    <g id="ytick_4">
     <g id="line2d_10">
      <g>
       <use xlink:href="#m350a5d52a3" x="50.87" y="151.722119" style="stroke: #000000; stroke-width: 0.8"/>
      </g>
     </g>
     <g id="text_4">
      <!-- 250 -->
      <g transform="translate(24.7825 155.521338) scale(0.1 -0.1)">
       <use xlink:href="#DejaVuSans-32"/>
       <use xlink:href="#DejaVuSans-35" x="63.623047"/>
       <use xlink:href="#DejaVuSans-30" x="127.246094"/>
      </g>
     </g>
    </g>
    <g id="ytick_5">
     <g id="line2d_11">
      <g>
       <use xlink:href="#m350a5d52a3" x="50.87" y="105.05678" style="stroke: #000000; stroke-width: 0.8"/>
      </g>
     </g>
     <g id="text_5">
      <!-- 300 -->
      <g transform="translate(24.7825 108.855999) scale(0.1 -0.1)">
       <defs>
        <path id="DejaVuSans-33" d="M 2597 2516 
Q 3050 2419 3304 2112 
Q 3559 1806 3559 1356 
Q 3559 666 3084 287 
Q 2609 -91 1734 -91 
Q 1441 -91 1130 -33 
Q 819 25 488 141 
L 488 750 
Q 750 597 1062 519 
Q 1375 441 1716 441 
Q 2309 441 2620 675 
Q 2931 909 2931 1356 
Q 2931 1769 2642 2001 
Q 2353 2234 1838 2234 
L 1294 2234 
L 1294 2753 
L 1863 2753 
Q 2328 2753 2575 2939 
Q 2822 3125 2822 3475 
Q 2822 3834 2567 4026 
Q 2313 4219 1838 4219 
Q 1578 4219 1281 4162 
Q 984 4106 628 3988 
L 628 4550 
Q 988 4650 1302 4700 
Q 1616 4750 1894 4750 
Q 2613 4750 3031 4423 
Q 3450 4097 3450 3541 
Q 3450 3153 3228 2886 
Q 3006 2619 2597 2516 
z
" transform="scale(0.015625)"/>
       </defs>
       <use xlink:href="#DejaVuSans-33"/>
       <use xlink:href="#DejaVuSans-30" x="63.623047"/>
       <use xlink:href="#DejaVuSans-30" x="127.246094"/>
      </g>
     </g>
    </g>
    <g id="ytick_6">
     <g id="line2d_12">
      <g>
       <use xlink:href="#m350a5d52a3" x="50.87" y="58.39144" style="stroke: #000000; stroke-width: 0.8"/>
      </g>
     </g>
     <g id="text_6">
      <!-- 350 -->
      <g transform="translate(24.7825 62.190659) scale(0.1 -0.1)">
       <use xlink:href="#DejaVuSans-33"/>
       <use xlink:href="#DejaVuSans-35" x="63.623047"/>
       <use xlink:href="#DejaVuSans-30" x="127.246094"/>
      </g>
     </g>
    </g>
    <g id="text_7">
     <!-- Number of Food Eaten -->
     <g transform="translate(18.702813 238.164063) rotate(-90) scale(0.1 -0.1)">
      <defs>
       <path id="DejaVuSans-4e" d="M 628 4666 
L 1478 4666 
L 3547 763 
L 3547 4666 
L 4159 4666 
L 4159 0 
L 3309 0 
L 1241 3903 
L 1241 0 
L 628 0 
L 628 4666 
z
" transform="scale(0.015625)"/>
       <path id="DejaVuSans-75" d="M 544 1381 
L 544 3500 
L 1119 3500 
L 1119 1403 
Q 1119 906 1312 657 
Q 1506 409 1894 409 
Q 2359 409 2629 706 
Q 2900 1003 2900 1516 
L 2900 3500 
L 3475 3500 
L 3475 0 
L 2900 0 
L 2900 538 
Q 2691 219 2414 64 
Q 2138 -91 1772 -91 
Q 1169 -91 856 284 
Q 544 659 544 1381 
z
M 1991 3584 
L 1991 3584 
z
" transform="scale(0.015625)"/>
       <path id="DejaVuSans-6d" d="M 3328 2828 
Q 3544 3216 3844 3400 
Q 4144 3584 4550 3584 
Q 5097 3584 5394 3201 
Q 5691 2819 5691 2113 
L 5691 0 
L 5113 0 
L 5113 2094 
Q 5113 2597 4934 2840 
Q 4756 3084 4391 3084 
Q 3944 3084 3684 2787 
Q 3425 2491 3425 1978 
L 3425 0 
L 2847 0 
L 2847 2094 
Q 2847 2600 2669 2842 
Q 2491 3084 2119 3084 
Q 1678 3084 1418 2786 
Q 1159 2488 1159 1978 
L 1159 0 
L 581 0 
L 581 3500 
L 1159 3500 
L 1159 2956 
Q 1356 3278 1631 3431 
Q 1906 3584 2284 3584 
Q 2666 3584 2933 3390 
Q 3200 3197 3328 2828 
z
" transform="scale(0.015625)"/>
       <path id="DejaVuSans-62" d="M 3116 1747 
Q 3116 2381 2855 2742 
Q 2594 3103 2138 3103 
Q 1681 3103 1420 2742 
Q 1159 2381 1159 1747 
Q 1159 1113 1420 752 
Q 1681 391 2138 391 
Q 2594 391 2855 752 
Q 3116 1113 3116 1747 
z
M 1159 2969 
Q 1341 3281 1617 3432 
Q 1894 3584 2278 3584 
Q 2916 3584 3314 3078 
Q 3713 2572 3713 1747 
Q 3713 922 3314 415 
Q 2916 -91 2278 -91 
Q 1894 -91 1617 61 
Q 1341 213 1159 525 
L 1159 0 
L 581 0 
L 581 4863 
L 1159 4863 
L 1159 2969 
z
" transform="scale(0.015625)"/>
       <path id="DejaVuSans-65" d="M 3597 1894 
L 3597 1613 
L 953 1613 
Q 991 1019 1311 708 
Q 1631 397 2203 397 
Q 2534 397 2845 478 
Q 3156 559 3463 722 
L 3463 178 
Q 3153 47 2828 -22 
Q 2503 -91 2169 -91 
Q 1331 -91 842 396 
Q 353 884 353 1716 
Q 353 2575 817 3079 
Q 1281 3584 2069 3584 
Q 2775 3584 3186 3129 
Q 3597 2675 3597 1894 
z
M 3022 2063 
Q 3016 2534 2758 2815 
Q 2500 3097 2075 3097 
Q 1594 3097 1305 2825 
Q 1016 2553 972 2059 
L 3022 2063 
z
" transform="scale(0.015625)"/>
       <path id="DejaVuSans-72" d="M 2631 2963 
Q 2534 3019 2420 3045 
Q 2306 3072 2169 3072 
Q 1681 3072 1420 2755 
Q 1159 2438 1159 1844 
L 1159 0 
L 581 0 
L 581 3500 
L 1159 3500 
L 1159 2956 
Q 1341 3275 1631 3429 
Q 1922 3584 2338 3584 
Q 2397 3584 2469 3576 
Q 2541 3569 2628 3553 
L 2631 2963 
z
" transform="scale(0.015625)"/>
       <path id="DejaVuSans-20" transform="scale(0.015625)"/>
       <path id="DejaVuSans-6f" d="M 1959 3097 
Q 1497 3097 1228 2736 
Q 959 2375 959 1747 
Q 959 1119 1226 758 
Q 1494 397 1959 397 
Q 2419 397 2687 759 
Q 2956 1122 2956 1747 
Q 2956 2369 2687 2733 
Q 2419 3097 1959 3097 
z
M 1959 3584 
Q 2709 3584 3137 3096 
Q 3566 2609 3566 1747 
Q 3566 888 3137 398 
Q 2709 -91 1959 -91 
Q 1206 -91 779 398 
Q 353 888 353 1747 
Q 353 2609 779 3096 
Q 1206 3584 1959 3584 
z
" transform="scale(0.015625)"/>
       <path id="DejaVuSans-66" d="M 2375 4863 
L 2375 4384 
L 1825 4384 
Q 1516 4384 1395 4259 
Q 1275 4134 1275 3809 
L 1275 3500 
L 2222 3500 
L 2222 3053 
L 1275 3053 
L 1275 0 
L 697 0 
L 697 3053 
L 147 3053 
L 147 3500 
L 697 3500 
L 697 3744 
Q 697 4328 969 4595 
Q 1241 4863 1831 4863 
L 2375 4863 
z
" transform="scale(0.015625)"/>
       <path id="DejaVuSans-46" d="M 628 4666 
L 3309 4666 
L 3309 4134 
L 1259 4134 
L 1259 2759 
L 3109 2759 
L 3109 2228 
L 1259 2228 
L 1259 0 
L 628 0 
L 628 4666 
z
" transform="scale(0.015625)"/>
       <path id="DejaVuSans-64" d="M 2906 2969 
L 2906 4863 
L 3481 4863 
L 3481 0 
L 2906 0 
L 2906 525 
Q 2725 213 2448 61 
Q 2172 -91 1784 -91 
Q 1150 -91 751 415 
Q 353 922 353 1747 
Q 353 2572 751 3078 
Q 1150 3584 1784 3584 
Q 2172 3584 2448 3432 
Q 2725 3281 2906 2969 
z
M 947 1747 
Q 947 1113 1208 752 
Q 1469 391 1925 391 
Q 2381 391 2643 752 
Q 2906 1113 2906 1747 
Q 2906 2381 2643 2742 
Q 2381 3103 1925 3103 
Q 1469 3103 1208 2742 
Q 947 2381 947 1747 
z
" transform="scale(0.015625)"/>
       <path id="DejaVuSans-45" d="M 628 4666 
L 3578 4666 
L 3578 4134 
L 1259 4134 
L 1259 2753 
L 3481 2753 
L 3481 2222 
L 1259 2222 
L 1259 531 
L 3634 531 
L 3634 0 
L 628 0 
L 628 4666 
z
" transform="scale(0.015625)"/>
       <path id="DejaVuSans-61" d="M 2194 1759 
Q 1497 1759 1228 1600 
Q 959 1441 959 1056 
Q 959 750 1161 570 
Q 1363 391 1709 391 
Q 2188 391 2477 730 
Q 2766 1069 2766 1631 
L 2766 1759 
L 2194 1759 
z
M 3341 1997 
L 3341 0 
L 2766 0 
L 2766 531 
Q 2569 213 2275 61 
Q 1981 -91 1556 -91 
Q 1019 -91 701 211 
Q 384 513 384 1019 
Q 384 1609 779 1909 
Q 1175 2209 1959 2209 
L 2766 2209 
L 2766 2266 
Q 2766 2663 2505 2880 
Q 2244 3097 1772 3097 
Q 1472 3097 1187 3025 
Q 903 2953 641 2809 
L 641 3341 
Q 956 3463 1253 3523 
Q 1550 3584 1831 3584 
Q 2591 3584 2966 3190 
Q 3341 2797 3341 1997 
z
" transform="scale(0.015625)"/>
       <path id="DejaVuSans-74" d="M 1172 4494 
L 1172 3500 
L 2356 3500 
L 2356 3053 
L 1172 3053 
L 1172 1153 
Q 1172 725 1289 603 
Q 1406 481 1766 481 
L 2356 481 
L 2356 0 
L 1766 0 
Q 1100 0 847 248 
Q 594 497 594 1153 
L 594 3053 
L 172 3053 
L 172 3500 
L 594 3500 
L 594 4494 
L 1172 4494 
z
" transform="scale(0.015625)"/>
       <path id="DejaVuSans-6e" d="M 3513 2113 
L 3513 0 
L 2938 0 
L 2938 2094 
Q 2938 2591 2744 2837 
Q 2550 3084 2163 3084 
Q 1697 3084 1428 2787 
Q 1159 2491 1159 1978 
L 1159 0 
L 581 0 
L 581 3500 
L 1159 3500 
L 1159 2956 
Q 1366 3272 1645 3428 
Q 1925 3584 2291 3584 
Q 2894 3584 3203 3211 
Q 3513 2838 3513 2113 
z
" transform="scale(0.015625)"/>
      </defs>
      <use xlink:href="#DejaVuSans-4e"/>
      <use xlink:href="#DejaVuSans-75" x="74.804688"/>
      <use xlink:href="#DejaVuSans-6d" x="138.183594"/>
      <use xlink:href="#DejaVuSans-62" x="235.595703"/>
      <use xlink:href="#DejaVuSans-65" x="299.072266"/>
      <use xlink:href="#DejaVuSans-72" x="360.595703"/>
      <use xlink:href="#DejaVuSans-20" x="401.708984"/>
      <use xlink:href="#DejaVuSans-6f" x="433.496094"/>
      <use xlink:href="#DejaVuSans-66" x="494.677734"/>
      <use xlink:href="#DejaVuSans-20" x="529.882812"/>
      <use xlink:href="#DejaVuSans-46" x="561.669922"/>
      <use xlink:href="#DejaVuSans-6f" x="615.564453"/>
      <use xlink:href="#DejaVuSans-6f" x="676.746094"/>
      <use xlink:href="#DejaVuSans-64" x="737.927734"/>
      <use xlink:href="#DejaVuSans-20" x="801.404297"/>
      <use xlink:href="#DejaVuSans-45" x="833.191406"/>
      <use xlink:href="#DejaVuSans-61" x="896.375"/>
      <use xlink:href="#DejaVuSans-74" x="957.654297"/>
      <use xlink:href="#DejaVuSans-65" x="996.863281"/>
      <use xlink:href="#DejaVuSans-6e" x="1058.386719"/>
     </g>
    </g>
   </g>
   <g id="line2d_13">
    <path d="M 80.794091 210.361281 
L 86.839362 97.518881 
L 92.884633 69.077395 
L 98.929904 42.540681 
L 104.975174 42.540681 
L 111.020445 42.540681 
L 117.065716 42.540681 
L 123.110987 42.540681 
L 129.156258 42.540681 
L 135.201529 42.540681 
L 141.2468 42.540681 
L 147.292071 42.540681 
L 153.337342 42.540681 
L 159.382612 42.540681 
L 165.427883 42.540681 
L 171.473154 42.540681 
L 177.518425 42.540681 
L 183.563696 42.540681 
L 189.608967 42.540681 
L 195.654238 42.540681 
L 201.699509 42.540681 
L 207.74478 42.540681 
L 213.790051 42.540681 
L 219.835321 42.540681 
L 225.880592 42.540681 
L 231.925863 42.540681 
L 237.971134 42.540681 
L 244.016405 42.540681 
L 250.061676 42.540681 
L 256.106947 42.540681 
L 262.152218 42.540681 
L 268.197489 42.540681 
L 274.242759 42.540681 
L 280.28803 42.540681 
L 286.333301 42.540681 
L 292.378572 42.540681 
L 298.423843 42.540681 
L 304.469114 42.540681 
L 310.514385 42.540681 
L 316.559656 42.540681 
L 322.604927 42.540681 
L 328.650197 42.540681 
L 334.695468 42.540681 
L 340.740739 42.540681 
L 346.78601 42.540681 
L 352.831281 42.540681 
L 358.876552 42.540681 
L 364.921823 42.540681 
L 370.967094 42.540681 
L 377.012365 42.540681 
L 383.057635 42.540681 
L 389.102906 42.540681 
L 395.148177 42.540681 
L 401.193448 42.540681 
L 407.238719 42.540681 
L 413.28399 42.540681 
L 419.329261 42.540681 
L 425.374532 42.540681 
L 431.419803 42.540681 
L 437.465073 42.540681 
L 443.510344 42.540681 
L 449.555615 42.540681 
L 455.600886 42.540681 
L 461.646157 42.540681 
L 467.691428 42.540681 
L 473.736699 42.540681 
L 479.78197 42.540681 
L 485.827241 42.540681 
L 491.872511 42.540681 
L 497.917782 42.540681 
L 503.963053 42.540681 
L 510.008324 42.540681 
L 516.053595 42.540681 
L 522.098866 42.540681 
L 528.144137 42.540681 
L 534.189408 42.540681 
L 540.234679 42.540681 
L 546.279949 42.540681 
L 552.32522 42.540681 
L 558.370491 42.540681 
L 564.415762 42.540681 
L 570.461033 42.540681 
L 576.506304 42.540681 
L 582.551575 42.540681 
L 588.596846 42.540681 
L 594.642117 42.540681 
L 600.687388 42.540681 
L 606.732658 42.540681 
L 612.777929 42.540681 
L 618.8232 42.540681 
L 624.868471 42.540681 
L 630.913742 42.540681 
L 636.959013 42.540681 
L 643.004284 42.540681 
L 649.049555 42.540681 
L 655.094826 42.540681 
L 661.140096 42.540681 
L 667.185367 42.540681 
L 673.230638 42.540681 
L 679.275909 42.540681 
" clip-path="url(#p3dd08519f4)" style="fill: none; stroke: #00ffff; stroke-opacity: 0.3; stroke-width: 1.5; stroke-linecap: square"/>
   </g>
   <g id="line2d_14">
    <path d="M 80.794091 323.161364 
L 86.839362 266.543524 
L 92.884633 125.629053 
L 98.929904 125.629053 
L 104.975174 71.353984 
L 111.020445 71.353984 
L 117.065716 71.353984 
L 123.110987 71.353984 
L 129.156258 71.353984 
L 135.201529 71.353984 
L 141.2468 71.353984 
L 147.292071 71.353984 
L 153.337342 71.353984 
L 159.382612 71.335136 
L 165.427883 71.335136 
L 171.473154 71.335136 
L 177.518425 71.335136 
L 183.563696 71.335136 
L 189.608967 71.335136 
L 195.654238 71.335136 
L 201.699509 71.335136 
L 207.74478 71.335136 
L 213.790051 71.335136 
L 219.835321 71.335136 
L 225.880592 71.335136 
L 231.925863 71.335136 
L 237.971134 71.335136 
L 244.016405 71.335136 
L 250.061676 71.335136 
L 256.106947 71.335136 
L 262.152218 71.335136 
L 268.197489 71.335136 
L 274.242759 71.335136 
L 280.28803 71.335136 
L 286.333301 71.335136 
L 292.378572 71.335136 
L 298.423843 71.335136 
L 304.469114 71.335136 
L 310.514385 71.335136 
L 316.559656 71.335136 
L 322.604927 71.335136 
L 328.650197 71.335136 
L 334.695468 71.335136 
L 340.740739 71.335136 
L 346.78601 71.335136 
L 352.831281 71.335136 
L 358.876552 71.335136 
L 364.921823 71.335136 
L 370.967094 71.335136 
L 377.012365 71.335136 
L 383.057635 71.335136 
L 389.102906 71.335136 
L 395.148177 71.335136 
L 401.193448 71.335136 
L 407.238719 71.335136 
L 413.28399 71.335136 
L 419.329261 71.335136 
L 425.374532 71.335136 
L 431.419803 71.335136 
L 437.465073 71.335136 
L 443.510344 71.335136 
L 449.555615 71.335136 
L 455.600886 71.335136 
L 461.646157 71.335136 
L 467.691428 71.335136 
L 473.736699 71.335136 
L 479.78197 71.335136 
L 485.827241 71.335136 
L 491.872511 71.335136 
L 497.917782 71.335136 
L 503.963053 71.335136 
L 510.008324 71.335136 
L 516.053595 71.335136 
L 522.098866 71.335136 
L 528.144137 71.335136 
L 534.189408 71.335136 
L 540.234679 71.335136 
L 546.279949 71.335136 
L 552.32522 71.335136 
L 558.370491 71.335136 
L 564.415762 71.335136 
L 570.461033 71.335136 
L 576.506304 71.335136 
L 582.551575 71.335136 
L 588.596846 71.335136 
L 594.642117 71.335136 
L 600.687388 71.335136 
L 606.732658 71.335136 
L 612.777929 71.335136 
L 618.8232 71.335136 
L 624.868471 71.335136 
L 630.913742 71.335136 
L 636.959013 71.335136 
L 643.004284 71.335136 
L 649.049555 71.335136 
L 655.094826 71.335136 
L 661.140096 71.335136 
L 667.185367 71.335136 
L 673.230638 71.335136 
L 679.275909 71.335136 
" clip-path="url(#p3dd08519f4)" style="fill: none; stroke: #00ffff; stroke-opacity: 0.3; stroke-width: 1.5; stroke-linecap: square"/>
   </g>
   <g id="line2d_15">
    <path d="M 80.794091 295.783538 
L 86.839362 125.506906 
L 92.884633 98.799658 
L 98.929904 98.799658 
L 104.975174 98.799658 
L 111.020445 98.799658 
L 117.065716 98.799658 
L 123.110987 98.799658 
L 129.156258 98.799658 
L 135.201529 98.799658 
L 141.2468 98.799658 
L 147.292071 98.799658 
L 153.337342 98.799658 
L 159.382612 98.799658 
L 165.427883 98.799658 
L 171.473154 98.799658 
L 177.518425 98.799658 
L 183.563696 98.799658 
L 189.608967 98.799658 
L 195.654238 98.799658 
L 201.699509 98.799658 
L 207.74478 98.799658 
L 213.790051 98.799658 
L 219.835321 98.799658 
L 225.880592 98.799658 
L 231.925863 98.799658 
L 237.971134 98.799658 
L 244.016405 98.799658 
L 250.061676 98.799658 
L 256.106947 98.799658 
L 262.152218 98.799658 
L 268.197489 98.799658 
L 274.242759 98.799658 
L 280.28803 98.799658 
L 286.333301 98.799658 
L 292.378572 98.799658 
L 298.423843 98.799658 
L 304.469114 98.799658 
L 310.514385 98.799658 
L 316.559656 98.799658 
L 322.604927 98.799658 
L 328.650197 98.799658 
L 334.695468 98.799658 
L 340.740739 98.799658 
L 346.78601 98.799658 
L 352.831281 98.799658 
L 358.876552 98.799658 
L 364.921823 98.799658 
L 370.967094 98.799658 
L 377.012365 98.799658 
L 383.057635 98.799658 
L 389.102906 98.799658 
L 395.148177 98.799658 
L 401.193448 98.799658 
L 407.238719 98.799658 
L 413.28399 98.799658 
L 419.329261 98.799658 
L 425.374532 98.799658 
L 431.419803 98.799658 
L 437.465073 98.799658 
L 443.510344 98.799658 
L 449.555615 98.799658 
L 455.600886 98.799658 
L 461.646157 98.799658 
L 467.691428 98.799658 
L 473.736699 98.799658 
L 479.78197 98.799658 
L 485.827241 98.799658 
L 491.872511 98.799658 
L 497.917782 98.799658 
L 503.963053 98.799658 
L 510.008324 98.799658 
L 516.053595 98.799658 
L 522.098866 98.799658 
L 528.144137 98.799658 
L 534.189408 98.799658 
L 540.234679 98.799658 
L 546.279949 98.799658 
L 552.32522 98.799658 
L 558.370491 98.799658 
L 564.415762 98.799658 
L 570.461033 98.799658 
L 576.506304 98.799658 
L 582.551575 98.799658 
L 588.596846 98.799658 
L 594.642117 98.799658 
L 600.687388 98.799658 
L 606.732658 98.799658 
L 612.777929 98.799658 
L 618.8232 98.799658 
L 624.868471 98.799658 
L 630.913742 98.799658 
L 636.959013 98.799658 
L 643.004284 98.799658 
L 649.049555 98.799658 
L 655.094826 98.799658 
L 661.140096 98.799658 
L 667.185367 98.799658 
L 673.230638 98.799658 
L 679.275909 98.799658 
" clip-path="url(#p3dd08519f4)" style="fill: none; stroke: #00ffff; stroke-opacity: 0.3; stroke-width: 1.5; stroke-linecap: square"/>
   </g>
   <g id="line2d_16">
    <path d="M 80.794091 210.361281 
L 86.839362 99.445105 
L 92.884633 70.385377 
L 98.929904 69.704264 
L 104.975174 69.704264 
L 111.020445 69.704264 
L 117.065716 69.704264 
L 123.110987 69.704264 
L 129.156258 69.704264 
L 135.201529 69.704264 
L 141.2468 69.704264 
L 147.292071 69.704264 
L 153.337342 69.704264 
L 159.382612 69.704264 
L 165.427883 69.704264 
L 171.473154 69.704264 
L 177.518425 69.704264 
L 183.563696 69.704264 
L 189.608967 69.704264 
L 195.654238 69.704264 
L 201.699509 69.704264 
L 207.74478 69.704264 
L 213.790051 69.704264 
L 219.835321 69.704264 
L 225.880592 69.704264 
L 231.925863 69.704264 
L 237.971134 69.704264 
L 244.016405 69.704264 
L 250.061676 69.704264 
L 256.106947 69.704264 
L 262.152218 69.704264 
L 268.197489 69.704264 
L 274.242759 69.704264 
L 280.28803 69.704264 
L 286.333301 69.704264 
L 292.378572 69.704264 
L 298.423843 69.704264 
L 304.469114 69.704264 
L 310.514385 69.704264 
L 316.559656 69.704264 
L 322.604927 69.704264 
L 328.650197 69.704264 
L 334.695468 69.704264 
L 340.740739 69.704264 
L 346.78601 69.704264 
L 352.831281 69.704264 
L 358.876552 69.704264 
L 364.921823 69.704264 
L 370.967094 69.704264 
L 377.012365 69.704264 
L 383.057635 69.704264 
L 389.102906 69.704264 
L 395.148177 69.704264 
L 401.193448 69.704264 
L 407.238719 69.704264 
L 413.28399 69.704264 
L 419.329261 69.704264 
L 425.374532 69.704264 
L 431.419803 69.704264 
L 437.465073 69.704264 
L 443.510344 69.704264 
L 449.555615 69.704264 
L 455.600886 69.704264 
L 461.646157 69.704264 
L 467.691428 69.704264 
L 473.736699 69.704264 
L 479.78197 69.704264 
L 485.827241 69.704264 
L 491.872511 69.704264 
L 497.917782 69.704264 
L 503.963053 69.704264 
L 510.008324 69.704264 
L 516.053595 69.704264 
L 522.098866 69.704264 
L 528.144137 69.704264 
L 534.189408 69.704264 
L 540.234679 69.704264 
L 546.279949 69.704264 
L 552.32522 69.704264 
L 558.370491 69.704264 
L 564.415762 69.704264 
L 570.461033 69.704264 
L 576.506304 69.704264 
L 582.551575 69.704264 
L 588.596846 69.704264 
L 594.642117 69.704264 
L 600.687388 69.704264 
L 606.732658 69.704264 
L 612.777929 69.704264 
L 618.8232 69.704264 
L 624.868471 69.704264 
L 630.913742 69.704264 
L 636.959013 69.704264 
L 643.004284 69.704264 
L 649.049555 69.704264 
L 655.094826 69.704264 
L 661.140096 69.704264 
L 667.185367 69.704264 
L 673.230638 69.704264 
L 679.275909 69.704264 
" clip-path="url(#p3dd08519f4)" style="fill: none; stroke: #00ffff; stroke-opacity: 0.3; stroke-width: 1.5; stroke-linecap: square"/>
   </g>
   <g id="line2d_17">
    <path d="M 80.794091 267.511677 
L 86.839362 296.182783 
L 92.884633 100.197295 
L 98.929904 72.181759 
L 104.975174 72.181759 
L 111.020445 72.181759 
L 117.065716 72.181759 
L 123.110987 72.181759 
L 129.156258 72.181759 
L 135.201529 72.181759 
L 141.2468 72.181759 
L 147.292071 72.181759 
L 153.337342 72.181759 
L 159.382612 72.181759 
L 165.427883 72.181759 
L 171.473154 72.181759 
L 177.518425 72.181759 
L 183.563696 72.181759 
L 189.608967 72.181759 
L 195.654238 72.181759 
L 201.699509 72.181759 
L 207.74478 72.181759 
L 213.790051 72.181759 
L 219.835321 72.181759 
L 225.880592 72.181759 
L 231.925863 72.181759 
L 237.971134 72.181759 
L 244.016405 72.181759 
L 250.061676 72.181759 
L 256.106947 72.181759 
L 262.152218 72.181759 
L 268.197489 72.181759 
L 274.242759 72.181759 
L 280.28803 72.181759 
L 286.333301 72.181759 
L 292.378572 72.181759 
L 298.423843 72.181759 
L 304.469114 72.181759 
L 310.514385 72.181759 
L 316.559656 72.181759 
L 322.604927 72.181759 
L 328.650197 72.181759 
L 334.695468 72.181759 
L 340.740739 72.181759 
L 346.78601 72.181759 
L 352.831281 72.181759 
L 358.876552 72.181759 
L 364.921823 72.181759 
L 370.967094 72.181759 
L 377.012365 72.181759 
L 383.057635 72.181759 
L 389.102906 72.181759 
L 395.148177 72.181759 
L 401.193448 72.181759 
L 407.238719 72.181759 
L 413.28399 72.181759 
L 419.329261 72.181759 
L 425.374532 72.181759 
L 431.419803 72.181759 
L 437.465073 72.181759 
L 443.510344 72.181759 
L 449.555615 72.181759 
L 455.600886 72.181759 
L 461.646157 72.181759 
L 467.691428 72.181759 
L 473.736699 72.181759 
L 479.78197 72.181759 
L 485.827241 72.181759 
L 491.872511 72.181759 
L 497.917782 72.181759 
L 503.963053 72.181759 
L 510.008324 72.181759 
L 516.053595 72.181759 
L 522.098866 72.181759 
L 528.144137 72.181759 
L 534.189408 72.181759 
L 540.234679 72.181759 
L 546.279949 72.181759 
L 552.32522 72.181759 
L 558.370491 72.181759 
L 564.415762 72.181759 
L 570.461033 72.181759 
L 576.506304 72.181759 
L 582.551575 72.181759 
L 588.596846 72.181759 
L 594.642117 72.181759 
L 600.687388 72.181759 
L 606.732658 72.181759 
L 612.777929 72.181759 
L 618.8232 72.181759 
L 624.868471 72.181759 
L 630.913742 72.181759 
L 636.959013 72.181759 
L 643.004284 72.181759 
L 649.049555 72.181759 
L 655.094826 72.181759 
L 661.140096 72.181759 
L 667.185367 72.181759 
L 673.230638 72.181759 
L 679.275909 72.181759 
" clip-path="url(#p3dd08519f4)" style="fill: none; stroke: #00ffff; stroke-opacity: 0.3; stroke-width: 1.5; stroke-linecap: square"/>
   </g>
   <g id="line2d_18">
    <path d="M 80.794091 237.959048 
L 86.839362 268.139837 
L 92.884633 98.827725 
L 98.929904 98.827725 
L 104.975174 98.827725 
L 111.020445 98.269583 
L 117.065716 98.269583 
L 123.110987 40.988636 
L 129.156258 40.988636 
L 135.201529 40.988636 
L 141.2468 40.988636 
L 147.292071 40.988636 
L 153.337342 40.988636 
L 159.382612 40.988636 
L 165.427883 40.988636 
L 171.473154 40.988636 
L 177.518425 40.988636 
L 183.563696 40.988636 
L 189.608967 40.988636 
L 195.654238 40.988636 
L 201.699509 40.988636 
L 207.74478 40.988636 
L 213.790051 40.988636 
L 219.835321 40.988636 
L 225.880592 40.988636 
L 231.925863 40.988636 
L 237.971134 40.988636 
L 244.016405 40.988636 
L 250.061676 40.988636 
L 256.106947 40.988636 
L 262.152218 40.988636 
L 268.197489 40.988636 
L 274.242759 40.988636 
L 280.28803 40.988636 
L 286.333301 40.988636 
L 292.378572 40.988636 
L 298.423843 40.988636 
L 304.469114 40.988636 
L 310.514385 40.988636 
L 316.559656 40.988636 
L 322.604927 40.988636 
L 328.650197 40.988636 
L 334.695468 40.988636 
L 340.740739 40.988636 
L 346.78601 40.988636 
L 352.831281 40.988636 
L 358.876552 40.988636 
L 364.921823 40.988636 
L 370.967094 40.988636 
L 377.012365 40.988636 
L 383.057635 40.988636 
L 389.102906 40.988636 
L 395.148177 40.988636 
L 401.193448 40.988636 
L 407.238719 40.988636 
L 413.28399 40.988636 
L 419.329261 40.988636 
L 425.374532 40.988636 
L 431.419803 40.988636 
L 437.465073 40.988636 
L 443.510344 40.988636 
L 449.555615 40.988636 
L 455.600886 40.988636 
L 461.646157 40.988636 
L 467.691428 40.988636 
L 473.736699 40.988636 
L 479.78197 40.988636 
L 485.827241 40.988636 
L 491.872511 40.988636 
L 497.917782 40.988636 
L 503.963053 40.988636 
L 510.008324 40.988636 
L 516.053595 40.988636 
L 522.098866 40.988636 
L 528.144137 40.988636 
L 534.189408 40.988636 
L 540.234679 40.988636 
L 546.279949 40.988636 
L 552.32522 40.988636 
L 558.370491 40.988636 
L 564.415762 40.988636 
L 570.461033 40.988636 
L 576.506304 40.988636 
L 582.551575 40.988636 
L 588.596846 40.988636 
L 594.642117 40.988636 
L 600.687388 40.988636 
L 606.732658 40.988636 
L 612.777929 40.988636 
L 618.8232 40.988636 
L 624.868471 40.988636 
L 630.913742 40.988636 
L 636.959013 40.988636 
L 643.004284 40.988636 
L 649.049555 40.988636 
L 655.094826 40.988636 
L 661.140096 40.988636 
L 667.185367 40.988636 
L 673.230638 40.988636 
L 679.275909 40.988636 
" clip-path="url(#p3dd08519f4)" style="fill: none; stroke: #00ffff; stroke-opacity: 0.3; stroke-width: 1.5; stroke-linecap: square"/>
   </g>
   <g id="line2d_19">
    <path d="M 80.794091 268.539096 
L 86.839362 294.913023 
L 92.884633 96.084541 
L 98.929904 96.084541 
L 104.975174 96.084541 
L 111.020445 96.084541 
L 117.065716 96.084541 
L 123.110987 96.084541 
L 129.156258 96.084541 
L 135.201529 96.084541 
L 141.2468 96.084541 
L 147.292071 96.084541 
L 153.337342 96.084541 
L 159.382612 96.084541 
L 165.427883 96.084541 
L 171.473154 96.084541 
L 177.518425 96.084541 
L 183.563696 96.084541 
L 189.608967 96.084541 
L 195.654238 96.084541 
L 201.699509 96.084541 
L 207.74478 96.084541 
L 213.790051 96.084541 
L 219.835321 96.084541 
L 225.880592 96.084541 
L 231.925863 96.084541 
L 237.971134 96.084541 
L 244.016405 96.084541 
L 250.061676 96.084541 
L 256.106947 96.084541 
L 262.152218 96.084541 
L 268.197489 96.084541 
L 274.242759 96.084541 
L 280.28803 96.084541 
L 286.333301 96.084541 
L 292.378572 96.084541 
L 298.423843 96.084541 
L 304.469114 96.084541 
L 310.514385 96.084541 
L 316.559656 96.084541 
L 322.604927 96.084541 
L 328.650197 96.084541 
L 334.695468 96.084541 
L 340.740739 96.084541 
L 346.78601 96.084541 
L 352.831281 96.084541 
L 358.876552 96.084541 
L 364.921823 96.084541 
L 370.967094 96.084541 
L 377.012365 96.084541 
L 383.057635 96.084541 
L 389.102906 96.084541 
L 395.148177 96.084541 
L 401.193448 96.084541 
L 407.238719 96.084541 
L 413.28399 96.084541 
L 419.329261 96.084541 
L 425.374532 96.084541 
L 431.419803 96.084541 
L 437.465073 96.084541 
L 443.510344 96.084541 
L 449.555615 96.084541 
L 455.600886 96.084541 
L 461.646157 96.084541 
L 467.691428 96.084541 
L 473.736699 96.084541 
L 479.78197 96.084541 
L 485.827241 96.084541 
L 491.872511 96.084541 
L 497.917782 96.084541 
L 503.963053 96.084541 
L 510.008324 96.084541 
L 516.053595 96.084541 
L 522.098866 96.084541 
L 528.144137 96.084541 
L 534.189408 96.084541 
L 540.234679 96.084541 
L 546.279949 96.084541 
L 552.32522 96.084541 
L 558.370491 96.084541 
L 564.415762 96.084541 
L 570.461033 96.084541 
L 576.506304 96.084541 
L 582.551575 96.084541 
L 588.596846 96.084541 
L 594.642117 96.084541 
L 600.687388 96.084541 
L 606.732658 96.084541 
L 612.777929 96.084541 
L 618.8232 96.084541 
L 624.868471 96.084541 
L 630.913742 96.084541 
L 636.959013 96.084541 
L 643.004284 96.084541 
L 649.049555 96.084541 
L 655.094826 96.084541 
L 661.140096 96.084541 
L 667.185367 96.084541 
L 673.230638 96.084541 
L 679.275909 96.084541 
" clip-path="url(#p3dd08519f4)" style="fill: none; stroke: #00ffff; stroke-opacity: 0.3; stroke-width: 1.5; stroke-linecap: square"/>
   </g>
   <g id="line2d_20">
    <path d="M 80.794091 294.613662 
L 86.839362 126.185774 
L 92.884633 126.184443 
L 98.929904 98.901859 
L 104.975174 97.856472 
L 111.020445 71.3739 
L 117.065716 71.3739 
L 123.110987 71.3739 
L 129.156258 71.3739 
L 135.201529 71.3739 
L 141.2468 71.3739 
L 147.292071 71.3739 
L 153.337342 71.3739 
L 159.382612 71.3739 
L 165.427883 71.3739 
L 171.473154 71.3739 
L 177.518425 71.3739 
L 183.563696 71.3739 
L 189.608967 71.3739 
L 195.654238 71.3739 
L 201.699509 71.3739 
L 207.74478 71.3739 
L 213.790051 71.3739 
L 219.835321 71.3739 
L 225.880592 71.3739 
L 231.925863 71.3739 
L 237.971134 71.3739 
L 244.016405 71.3739 
L 250.061676 71.3739 
L 256.106947 71.3739 
L 262.152218 71.3739 
L 268.197489 71.3739 
L 274.242759 71.3739 
L 280.28803 71.3739 
L 286.333301 71.3739 
L 292.378572 71.3739 
L 298.423843 71.3739 
L 304.469114 71.3739 
L 310.514385 71.3739 
L 316.559656 71.3739 
L 322.604927 71.3739 
L 328.650197 71.3739 
L 334.695468 71.3739 
L 340.740739 71.3739 
L 346.78601 71.3739 
L 352.831281 71.3739 
L 358.876552 71.3739 
L 364.921823 71.3739 
L 370.967094 71.3739 
L 377.012365 71.3739 
L 383.057635 71.3739 
L 389.102906 71.3739 
L 395.148177 71.3739 
L 401.193448 71.3739 
L 407.238719 71.3739 
L 413.28399 71.3739 
L 419.329261 71.3739 
L 425.374532 71.3739 
L 431.419803 71.3739 
L 437.465073 71.3739 
L 443.510344 71.3739 
L 449.555615 71.3739 
L 455.600886 71.3739 
L 461.646157 71.3739 
L 467.691428 71.3739 
L 473.736699 71.3739 
L 479.78197 71.3739 
L 485.827241 71.3739 
L 491.872511 71.3739 
L 497.917782 71.3739 
L 503.963053 71.3739 
L 510.008324 71.3739 
L 516.053595 71.3739 
L 522.098866 71.3739 
L 528.144137 71.3739 
L 534.189408 71.3739 
L 540.234679 71.3739 
L 546.279949 71.3739 
L 552.32522 71.3739 
L 558.370491 71.3739 
L 564.415762 71.3739 
L 570.461033 71.3739 
L 576.506304 71.3739 
L 582.551575 71.3739 
L 588.596846 71.3739 
L 594.642117 71.3739 
L 600.687388 71.3739 
L 606.732658 71.3739 
L 612.777929 71.3739 
L 618.8232 71.3739 
L 624.868471 71.3739 
L 630.913742 71.3739 
L 636.959013 71.3739 
L 643.004284 71.3739 
L 649.049555 71.3739 
L 655.094826 71.3739 
L 661.140096 71.3739 
L 667.185367 71.3739 
L 673.230638 71.3739 
L 679.275909 71.3739 
" clip-path="url(#p3dd08519f4)" style="fill: none; stroke: #00ffff; stroke-opacity: 0.3; stroke-width: 1.5; stroke-linecap: square"/>
   </g>
   <g id="line2d_21">
    <path d="M 80.794091 263.536368 
L 86.839362 196.804479 
L 92.884633 98.148186 
L 98.929904 87.833693 
L 104.975174 80.918636 
L 111.020445 77.538546 
L 117.065716 77.538546 
L 123.110987 70.378428 
L 129.156258 70.378428 
L 135.201529 70.378428 
L 141.2468 70.378428 
L 147.292071 70.378428 
L 153.337342 70.378428 
L 159.382612 70.376072 
L 165.427883 70.376072 
L 171.473154 70.376072 
L 177.518425 70.376072 
L 183.563696 70.376072 
L 189.608967 70.376072 
L 195.654238 70.376072 
L 201.699509 70.376072 
L 207.74478 70.376072 
L 213.790051 70.376072 
L 219.835321 70.376072 
L 225.880592 70.376072 
L 231.925863 70.376072 
L 237.971134 70.376072 
L 244.016405 70.376072 
L 250.061676 70.376072 
L 256.106947 70.376072 
L 262.152218 70.376072 
L 268.197489 70.376072 
L 274.242759 70.376072 
L 280.28803 70.376072 
L 286.333301 70.376072 
L 292.378572 70.376072 
L 298.423843 70.376072 
L 304.469114 70.376072 
L 310.514385 70.376072 
L 316.559656 70.376072 
L 322.604927 70.376072 
L 328.650197 70.376072 
L 334.695468 70.376072 
L 340.740739 70.376072 
L 346.78601 70.376072 
L 352.831281 70.376072 
L 358.876552 70.376072 
L 364.921823 70.376072 
L 370.967094 70.376072 
L 377.012365 70.376072 
L 383.057635 70.376072 
L 389.102906 70.376072 
L 395.148177 70.376072 
L 401.193448 70.376072 
L 407.238719 70.376072 
L 413.28399 70.376072 
L 419.329261 70.376072 
L 425.374532 70.376072 
L 431.419803 70.376072 
L 437.465073 70.376072 
L 443.510344 70.376072 
L 449.555615 70.376072 
L 455.600886 70.376072 
L 461.646157 70.376072 
L 467.691428 70.376072 
L 473.736699 70.376072 
L 479.78197 70.376072 
L 485.827241 70.376072 
L 491.872511 70.376072 
L 497.917782 70.376072 
L 503.963053 70.376072 
L 510.008324 70.376072 
L 516.053595 70.376072 
L 522.098866 70.376072 
L 528.144137 70.376072 
L 534.189408 70.376072 
L 540.234679 70.376072 
L 546.279949 70.376072 
L 552.32522 70.376072 
L 558.370491 70.376072 
L 564.415762 70.376072 
L 570.461033 70.376072 
L 576.506304 70.376072 
L 582.551575 70.376072 
L 588.596846 70.376072 
L 594.642117 70.376072 
L 600.687388 70.376072 
L 606.732658 70.376072 
L 612.777929 70.376072 
L 618.8232 70.376072 
L 624.868471 70.376072 
L 630.913742 70.376072 
L 636.959013 70.376072 
L 643.004284 70.376072 
L 649.049555 70.376072 
L 655.094826 70.376072 
L 661.140096 70.376072 
L 667.185367 70.376072 
L 673.230638 70.376072 
L 679.275909 70.376072 
" clip-path="url(#p3dd08519f4)" style="fill: none; stroke: #00ffff; stroke-width: 2; stroke-linecap: square"/>
   </g>
   <g id="patch_3">
    <path d="M 50.87 337.27 
L 50.87 26.88 
" style="fill: none; stroke: #000000; stroke-width: 0.8; stroke-linejoin: miter; stroke-linecap: square"/>
   </g>
   <g id="patch_4">
    <path d="M 709.2 337.27 
L 709.2 26.88 
" style="fill: none; stroke: #000000; stroke-width: 0.8; stroke-linejoin: miter; stroke-linecap: square"/>
   </g>
   <g id="patch_5">
    <path d="M 50.87 337.27 
L 709.2 337.27 
" style="fill: none; stroke: #000000; stroke-width: 0.8; stroke-linejoin: miter; stroke-linecap: square"/>
   </g>
   <g id="patch_6">
    <path d="M 50.87 26.88 
L 709.2 26.88 
" style="fill: none; stroke: #000000; stroke-width: 0.8; stroke-linejoin: miter; stroke-linecap: square"/>
   </g>
   <g id="text_8">
    <!-- Fitness on Square Food Pattern Over Generations  -->
    <g transform="translate(230.311563 20.88) scale(0.12 -0.12)">
     <defs>
      <path id="DejaVuSans-69" d="M 603 3500 
L 1178 3500 
L 1178 0 
L 603 0 
L 603 3500 
z
M 603 4863 
L 1178 4863 
L 1178 4134 
L 603 4134 
L 603 4863 
z
" transform="scale(0.015625)"/>
      <path id="DejaVuSans-73" d="M 2834 3397 
L 2834 2853 
Q 2591 2978 2328 3040 
Q 2066 3103 1784 3103 
Q 1356 3103 1142 2972 
Q 928 2841 928 2578 
Q 928 2378 1081 2264 
Q 1234 2150 1697 2047 
L 1894 2003 
Q 2506 1872 2764 1633 
Q 3022 1394 3022 966 
Q 3022 478 2636 193 
Q 2250 -91 1575 -91 
Q 1294 -91 989 -36 
Q 684 19 347 128 
L 347 722 
Q 666 556 975 473 
Q 1284 391 1588 391 
Q 1994 391 2212 530 
Q 2431 669 2431 922 
Q 2431 1156 2273 1281 
Q 2116 1406 1581 1522 
L 1381 1569 
Q 847 1681 609 1914 
Q 372 2147 372 2553 
Q 372 3047 722 3315 
Q 1072 3584 1716 3584 
Q 2034 3584 2315 3537 
Q 2597 3491 2834 3397 
z
" transform="scale(0.015625)"/>
      <path id="DejaVuSans-53" d="M 3425 4513 
L 3425 3897 
Q 3066 4069 2747 4153 
Q 2428 4238 2131 4238 
Q 1616 4238 1336 4038 
Q 1056 3838 1056 3469 
Q 1056 3159 1242 3001 
Q 1428 2844 1947 2747 
L 2328 2669 
Q 3034 2534 3370 2195 
Q 3706 1856 3706 1288 
Q 3706 609 3251 259 
Q 2797 -91 1919 -91 
Q 1588 -91 1214 -16 
Q 841 59 441 206 
L 441 856 
Q 825 641 1194 531 
Q 1563 422 1919 422 
Q 2459 422 2753 634 
Q 3047 847 3047 1241 
Q 3047 1584 2836 1778 
Q 2625 1972 2144 2069 
L 1759 2144 
Q 1053 2284 737 2584 
Q 422 2884 422 3419 
Q 422 4038 858 4394 
Q 1294 4750 2059 4750 
Q 2388 4750 2728 4690 
Q 3069 4631 3425 4513 
z
" transform="scale(0.015625)"/>
      <path id="DejaVuSans-71" d="M 947 1747 
Q 947 1113 1208 752 
Q 1469 391 1925 391 
Q 2381 391 2643 752 
Q 2906 1113 2906 1747 
Q 2906 2381 2643 2742 
Q 2381 3103 1925 3103 
Q 1469 3103 1208 2742 
Q 947 2381 947 1747 
z
M 2906 525 
Q 2725 213 2448 61 
Q 2172 -91 1784 -91 
Q 1150 -91 751 415 
Q 353 922 353 1747 
Q 353 2572 751 3078 
Q 1150 3584 1784 3584 
Q 2172 3584 2448 3432 
Q 2725 3281 2906 2969 
L 2906 3500 
L 3481 3500 
L 3481 -1331 
L 2906 -1331 
L 2906 525 
z
" transform="scale(0.015625)"/>
      <path id="DejaVuSans-50" d="M 1259 4147 
L 1259 2394 
L 2053 2394 
Q 2494 2394 2734 2622 
Q 2975 2850 2975 3272 
Q 2975 3691 2734 3919 
Q 2494 4147 2053 4147 
L 1259 4147 
z
M 628 4666 
L 2053 4666 
Q 2838 4666 3239 4311 
Q 3641 3956 3641 3272 
Q 3641 2581 3239 2228 
Q 2838 1875 2053 1875 
L 1259 1875 
L 1259 0 
L 628 0 
L 628 4666 
z
" transform="scale(0.015625)"/>
      <path id="DejaVuSans-4f" d="M 2522 4238 
Q 1834 4238 1429 3725 
Q 1025 3213 1025 2328 
Q 1025 1447 1429 934 
Q 1834 422 2522 422 
Q 3209 422 3611 934 
Q 4013 1447 4013 2328 
Q 4013 3213 3611 3725 
Q 3209 4238 2522 4238 
z
M 2522 4750 
Q 3503 4750 4090 4092 
Q 4678 3434 4678 2328 
Q 4678 1225 4090 567 
Q 3503 -91 2522 -91 
Q 1538 -91 948 565 
Q 359 1222 359 2328 
Q 359 3434 948 4092 
Q 1538 4750 2522 4750 
z
" transform="scale(0.015625)"/>
      <path id="DejaVuSans-76" d="M 191 3500 
L 800 3500 
L 1894 563 
L 2988 3500 
L 3597 3500 
L 2284 0 
L 1503 0 
L 191 3500 
z
" transform="scale(0.015625)"/>
      <path id="DejaVuSans-47" d="M 3809 666 
L 3809 1919 
L 2778 1919 
L 2778 2438 
L 4434 2438 
L 4434 434 
Q 4069 175 3628 42 
Q 3188 -91 2688 -91 
Q 1594 -91 976 548 
Q 359 1188 359 2328 
Q 359 3472 976 4111 
Q 1594 4750 2688 4750 
Q 3144 4750 3555 4637 
Q 3966 4525 4313 4306 
L 4313 3634 
Q 3963 3931 3569 4081 
Q 3175 4231 2741 4231 
Q 1884 4231 1454 3753 
Q 1025 3275 1025 2328 
Q 1025 1384 1454 906 
Q 1884 428 2741 428 
Q 3075 428 3337 486 
Q 3600 544 3809 666 
z
" transform="scale(0.015625)"/>
     </defs>
     <use xlink:href="#DejaVuSans-46"/>
     <use xlink:href="#DejaVuSans-69" x="50.269531"/>
     <use xlink:href="#DejaVuSans-74" x="78.052734"/>
     <use xlink:href="#DejaVuSans-6e" x="117.261719"/>
     <use xlink:href="#DejaVuSans-65" x="180.640625"/>
     <use xlink:href="#DejaVuSans-73" x="242.164062"/>
     <use xlink:href="#DejaVuSans-73" x="294.263672"/>
     <use xlink:href="#DejaVuSans-20" x="346.363281"/>
     <use xlink:href="#DejaVuSans-6f" x="378.150391"/>
     <use xlink:href="#DejaVuSans-6e" x="439.332031"/>
     <use xlink:href="#DejaVuSans-20" x="502.710938"/>
     <use xlink:href="#DejaVuSans-53" x="534.498047"/>
     <use xlink:href="#DejaVuSans-71" x="597.974609"/>
     <use xlink:href="#DejaVuSans-75" x="661.451172"/>
     <use xlink:href="#DejaVuSans-61" x="724.830078"/>
     <use xlink:href="#DejaVuSans-72" x="786.109375"/>
     <use xlink:href="#DejaVuSans-65" x="824.972656"/>
     <use xlink:href="#DejaVuSans-20" x="886.496094"/>
     <use xlink:href="#DejaVuSans-46" x="918.283203"/>
     <use xlink:href="#DejaVuSans-6f" x="972.177734"/>
     <use xlink:href="#DejaVuSans-6f" x="1033.359375"/>
     <use xlink:href="#DejaVuSans-64" x="1094.541016"/>
     <use xlink:href="#DejaVuSans-20" x="1158.017578"/>
     <use xlink:href="#DejaVuSans-50" x="1189.804688"/>
     <use xlink:href="#DejaVuSans-61" x="1245.607422"/>
     <use xlink:href="#DejaVuSans-74" x="1306.886719"/>
     <use xlink:href="#DejaVuSans-74" x="1346.095703"/>
     <use xlink:href="#DejaVuSans-65" x="1385.304688"/>
     <use xlink:href="#DejaVuSans-72" x="1446.828125"/>
     <use xlink:href="#DejaVuSans-6e" x="1486.191406"/>
     <use xlink:href="#DejaVuSans-20" x="1549.570312"/>
     <use xlink:href="#DejaVuSans-4f" x="1581.357422"/>
     <use xlink:href="#DejaVuSans-76" x="1660.068359"/>
     <use xlink:href="#DejaVuSans-65" x="1719.248047"/>
     <use xlink:href="#DejaVuSans-72" x="1780.771484"/>
     <use xlink:href="#DejaVuSans-20" x="1821.884766"/>
     <use xlink:href="#DejaVuSans-47" x="1853.671875"/>
     <use xlink:href="#DejaVuSans-65" x="1931.162109"/>
     <use xlink:href="#DejaVuSans-6e" x="1992.685547"/>
     <use xlink:href="#DejaVuSans-65" x="2056.064453"/>
     <use xlink:href="#DejaVuSans-72" x="2117.587891"/>
     <use xlink:href="#DejaVuSans-61" x="2158.701172"/>
     <use xlink:href="#DejaVuSans-74" x="2219.980469"/>
     <use xlink:href="#DejaVuSans-69" x="2259.189453"/>
     <use xlink:href="#DejaVuSans-6f" x="2286.972656"/>
     <use xlink:href="#DejaVuSans-6e" x="2348.154297"/>
     <use xlink:href="#DejaVuSans-73" x="2411.533203"/>
     <use xlink:href="#DejaVuSans-20" x="2463.632812"/>
    </g>
   </g>
  </g>
  <g id="axes_2">
   <g id="patch_7">
    <path d="M 50.87 678.04 
L 709.2 678.04 
L 709.2 367.65 
L 50.87 367.65 
z
" style="fill: #ffffff"/>
   </g>
   <g id="matplotlib.axis_3">
    <g id="xtick_7">
     <g id="line2d_22">
      <g>
       <use xlink:href="#m7598e84da7" x="80.794091" y="678.04" style="stroke: #000000; stroke-width: 0.8"/>
      </g>
     </g>
     <g id="text_9">
      <!-- 0 -->
      <g transform="translate(77.612841 692.638438) scale(0.1 -0.1)">
       <use xlink:href="#DejaVuSans-30"/>
      </g>
     </g>
    </g>
    <g id="xtick_8">
     <g id="line2d_23">
      <g>
       <use xlink:href="#m7598e84da7" x="201.699509" y="678.04" style="stroke: #000000; stroke-width: 0.8"/>
      </g>
     </g>
     <g id="text_10">
      <!-- 20 -->
      <g transform="translate(195.337009 692.638438) scale(0.1 -0.1)">
       <use xlink:href="#DejaVuSans-32"/>
       <use xlink:href="#DejaVuSans-30" x="63.623047"/>
      </g>
     </g>
    </g>
    <g id="xtick_9">
     <g id="line2d_24">
      <g>
       <use xlink:href="#m7598e84da7" x="322.604927" y="678.04" style="stroke: #000000; stroke-width: 0.8"/>
      </g>
     </g>
     <g id="text_11">
      <!-- 40 -->
      <g transform="translate(316.242427 692.638438) scale(0.1 -0.1)">
       <defs>
        <path id="DejaVuSans-34" d="M 2419 4116 
L 825 1625 
L 2419 1625 
L 2419 4116 
z
M 2253 4666 
L 3047 4666 
L 3047 1625 
L 3713 1625 
L 3713 1100 
L 3047 1100 
L 3047 0 
L 2419 0 
L 2419 1100 
L 313 1100 
L 313 1709 
L 2253 4666 
z
" transform="scale(0.015625)"/>
       </defs>
       <use xlink:href="#DejaVuSans-34"/>
       <use xlink:href="#DejaVuSans-30" x="63.623047"/>
      </g>
     </g>
    </g>
    <g id="xtick_10">
     <g id="line2d_25">
      <g>
       <use xlink:href="#m7598e84da7" x="443.510344" y="678.04" style="stroke: #000000; stroke-width: 0.8"/>
      </g>
     </g>
     <g id="text_12">
      <!-- 60 -->
      <g transform="translate(437.147844 692.638438) scale(0.1 -0.1)">
       <defs>
        <path id="DejaVuSans-36" d="M 2113 2584 
Q 1688 2584 1439 2293 
Q 1191 2003 1191 1497 
Q 1191 994 1439 701 
Q 1688 409 2113 409 
Q 2538 409 2786 701 
Q 3034 994 3034 1497 
Q 3034 2003 2786 2293 
Q 2538 2584 2113 2584 
z
M 3366 4563 
L 3366 3988 
Q 3128 4100 2886 4159 
Q 2644 4219 2406 4219 
Q 1781 4219 1451 3797 
Q 1122 3375 1075 2522 
Q 1259 2794 1537 2939 
Q 1816 3084 2150 3084 
Q 2853 3084 3261 2657 
Q 3669 2231 3669 1497 
Q 3669 778 3244 343 
Q 2819 -91 2113 -91 
Q 1303 -91 875 529 
Q 447 1150 447 2328 
Q 447 3434 972 4092 
Q 1497 4750 2381 4750 
Q 2619 4750 2861 4703 
Q 3103 4656 3366 4563 
z
" transform="scale(0.015625)"/>
       </defs>
       <use xlink:href="#DejaVuSans-36"/>
       <use xlink:href="#DejaVuSans-30" x="63.623047"/>
      </g>
     </g>
    </g>
    <g id="xtick_11">
     <g id="line2d_26">
      <g>
       <use xlink:href="#m7598e84da7" x="564.415762" y="678.04" style="stroke: #000000; stroke-width: 0.8"/>
      </g>
     </g>
     <g id="text_13">
      <!-- 80 -->
      <g transform="translate(558.053262 692.638438) scale(0.1 -0.1)">
       <defs>
        <path id="DejaVuSans-38" d="M 2034 2216 
Q 1584 2216 1326 1975 
Q 1069 1734 1069 1313 
Q 1069 891 1326 650 
Q 1584 409 2034 409 
Q 2484 409 2743 651 
Q 3003 894 3003 1313 
Q 3003 1734 2745 1975 
Q 2488 2216 2034 2216 
z
M 1403 2484 
Q 997 2584 770 2862 
Q 544 3141 544 3541 
Q 544 4100 942 4425 
Q 1341 4750 2034 4750 
Q 2731 4750 3128 4425 
Q 3525 4100 3525 3541 
Q 3525 3141 3298 2862 
Q 3072 2584 2669 2484 
Q 3125 2378 3379 2068 
Q 3634 1759 3634 1313 
Q 3634 634 3220 271 
Q 2806 -91 2034 -91 
Q 1263 -91 848 271 
Q 434 634 434 1313 
Q 434 1759 690 2068 
Q 947 2378 1403 2484 
z
M 1172 3481 
Q 1172 3119 1398 2916 
Q 1625 2713 2034 2713 
Q 2441 2713 2670 2916 
Q 2900 3119 2900 3481 
Q 2900 3844 2670 4047 
Q 2441 4250 2034 4250 
Q 1625 4250 1398 4047 
Q 1172 3844 1172 3481 
z
" transform="scale(0.015625)"/>
       </defs>
       <use xlink:href="#DejaVuSans-38"/>
       <use xlink:href="#DejaVuSans-30" x="63.623047"/>
      </g>
     </g>
    </g>
    <g id="xtick_12">
     <g id="line2d_27">
      <g>
       <use xlink:href="#m7598e84da7" x="685.32118" y="678.04" style="stroke: #000000; stroke-width: 0.8"/>
      </g>
     </g>
     <g id="text_14">
      <!-- 100 -->
      <g transform="translate(675.77743 692.638438) scale(0.1 -0.1)">
       <use xlink:href="#DejaVuSans-31"/>
       <use xlink:href="#DejaVuSans-30" x="63.623047"/>
       <use xlink:href="#DejaVuSans-30" x="127.246094"/>
      </g>
     </g>
    </g>
    <g id="text_15">
     <!-- Generation -->
     <g transform="translate(352.142031 706.316563) scale(0.1 -0.1)">
      <use xlink:href="#DejaVuSans-47"/>
      <use xlink:href="#DejaVuSans-65" x="77.490234"/>
      <use xlink:href="#DejaVuSans-6e" x="139.013672"/>
      <use xlink:href="#DejaVuSans-65" x="202.392578"/>
      <use xlink:href="#DejaVuSans-72" x="263.916016"/>
      <use xlink:href="#DejaVuSans-61" x="305.029297"/>
      <use xlink:href="#DejaVuSans-74" x="366.308594"/>
      <use xlink:href="#DejaVuSans-69" x="405.517578"/>
      <use xlink:href="#DejaVuSans-6f" x="433.300781"/>
      <use xlink:href="#DejaVuSans-6e" x="494.482422"/>
     </g>
    </g>
   </g>
   <g id="matplotlib.axis_4">
    <g id="ytick_7">
     <g id="line2d_28">
      <g>
       <use xlink:href="#m350a5d52a3" x="50.87" y="663.931364" style="stroke: #000000; stroke-width: 0.8"/>
      </g>
     </g>
     <g id="text_16">
      <!-- 1.0 -->
      <g transform="translate(27.966875 667.730582) scale(0.1 -0.1)">
       <defs>
        <path id="DejaVuSans-2e" d="M 684 794 
L 1344 794 
L 1344 0 
L 684 0 
L 684 794 
z
" transform="scale(0.015625)"/>
       </defs>
       <use xlink:href="#DejaVuSans-31"/>
       <use xlink:href="#DejaVuSans-2e" x="63.623047"/>
       <use xlink:href="#DejaVuSans-30" x="95.410156"/>
      </g>
     </g>
    </g>
    <g id="ytick_8">
     <g id="line2d_29">
      <g>
       <use xlink:href="#m350a5d52a3" x="50.87" y="607.496818" style="stroke: #000000; stroke-width: 0.8"/>
      </g>
     </g>
     <g id="text_17">
      <!-- 1.2 -->
      <g transform="translate(27.966875 611.296037) scale(0.1 -0.1)">
       <use xlink:href="#DejaVuSans-31"/>
       <use xlink:href="#DejaVuSans-2e" x="63.623047"/>
       <use xlink:href="#DejaVuSans-32" x="95.410156"/>
      </g>
     </g>
    </g>
    <g id="ytick_9">
     <g id="line2d_30">
      <g>
       <use xlink:href="#m350a5d52a3" x="50.87" y="551.062273" style="stroke: #000000; stroke-width: 0.8"/>
      </g>
     </g>
     <g id="text_18">
      <!-- 1.4 -->
      <g transform="translate(27.966875 554.861491) scale(0.1 -0.1)">
       <use xlink:href="#DejaVuSans-31"/>
       <use xlink:href="#DejaVuSans-2e" x="63.623047"/>
       <use xlink:href="#DejaVuSans-34" x="95.410156"/>
      </g>
     </g>
    </g>
    <g id="ytick_10">
     <g id="line2d_31">
      <g>
       <use xlink:href="#m350a5d52a3" x="50.87" y="494.627727" style="stroke: #000000; stroke-width: 0.8"/>
      </g>
     </g>
     <g id="text_19">
      <!-- 1.6 -->
      <g transform="translate(27.966875 498.426946) scale(0.1 -0.1)">
       <use xlink:href="#DejaVuSans-31"/>
       <use xlink:href="#DejaVuSans-2e" x="63.623047"/>
       <use xlink:href="#DejaVuSans-36" x="95.410156"/>
      </g>
     </g>
    </g>
    <g id="ytick_11">
     <g id="line2d_32">
      <g>
       <use xlink:href="#m350a5d52a3" x="50.87" y="438.193182" style="stroke: #000000; stroke-width: 0.8"/>
      </g>
     </g>
     <g id="text_20">
      <!-- 1.8 -->
      <g transform="translate(27.966875 441.992401) scale(0.1 -0.1)">
       <use xlink:href="#DejaVuSans-31"/>
       <use xlink:href="#DejaVuSans-2e" x="63.623047"/>
       <use xlink:href="#DejaVuSans-38" x="95.410156"/>
      </g>
     </g>
    </g>
    <g id="ytick_12">
     <g id="line2d_33">
      <g>
       <use xlink:href="#m350a5d52a3" x="50.87" y="381.758636" style="stroke: #000000; stroke-width: 0.8"/>
      </g>
     </g>
     <g id="text_21">
      <!-- 2.0 -->
      <g transform="translate(27.966875 385.557855) scale(0.1 -0.1)">
       <use xlink:href="#DejaVuSans-32"/>
       <use xlink:href="#DejaVuSans-2e" x="63.623047"/>
       <use xlink:href="#DejaVuSans-30" x="95.410156"/>
      </g>
     </g>
    </g>
    <g id="text_22">
     <!-- Differences -->
     <g transform="translate(21.887187 551.299688) rotate(-90) scale(0.1 -0.1)">
      <defs>
       <path id="DejaVuSans-44" d="M 1259 4147 
L 1259 519 
L 2022 519 
Q 2988 519 3436 956 
Q 3884 1394 3884 2338 
Q 3884 3275 3436 3711 
Q 2988 4147 2022 4147 
L 1259 4147 
z
M 628 4666 
L 1925 4666 
Q 3281 4666 3915 4102 
Q 4550 3538 4550 2338 
Q 4550 1131 3912 565 
Q 3275 0 1925 0 
L 628 0 
L 628 4666 
z
" transform="scale(0.015625)"/>
       <path id="DejaVuSans-63" d="M 3122 3366 
L 3122 2828 
Q 2878 2963 2633 3030 
Q 2388 3097 2138 3097 
Q 1578 3097 1268 2742 
Q 959 2388 959 1747 
Q 959 1106 1268 751 
Q 1578 397 2138 397 
Q 2388 397 2633 464 
Q 2878 531 3122 666 
L 3122 134 
Q 2881 22 2623 -34 
Q 2366 -91 2075 -91 
Q 1284 -91 818 406 
Q 353 903 353 1747 
Q 353 2603 823 3093 
Q 1294 3584 2113 3584 
Q 2378 3584 2631 3529 
Q 2884 3475 3122 3366 
z
" transform="scale(0.015625)"/>
      </defs>
      <use xlink:href="#DejaVuSans-44"/>
      <use xlink:href="#DejaVuSans-69" x="77.001953"/>
      <use xlink:href="#DejaVuSans-66" x="104.785156"/>
      <use xlink:href="#DejaVuSans-66" x="139.990234"/>
      <use xlink:href="#DejaVuSans-65" x="175.195312"/>
      <use xlink:href="#DejaVuSans-72" x="236.71875"/>
      <use xlink:href="#DejaVuSans-65" x="275.582031"/>
      <use xlink:href="#DejaVuSans-6e" x="337.105469"/>
      <use xlink:href="#DejaVuSans-63" x="400.484375"/>
      <use xlink:href="#DejaVuSans-65" x="455.464844"/>
      <use xlink:href="#DejaVuSans-73" x="516.988281"/>
     </g>
    </g>
   </g>
   <g id="line2d_34">
    <path d="M 80.794091 663.931364 
L 86.839362 381.758636 
L 92.884633 381.758636 
L 98.929904 381.758636 
L 104.975174 381.758636 
L 111.020445 381.758636 
L 117.065716 381.758636 
L 123.110987 381.758636 
L 129.156258 381.758636 
L 135.201529 381.758636 
L 141.2468 381.758636 
L 147.292071 381.758636 
L 153.337342 381.758636 
L 159.382612 381.758636 
L 165.427883 381.758636 
L 171.473154 381.758636 
L 177.518425 381.758636 
L 183.563696 381.758636 
L 189.608967 381.758636 
L 195.654238 381.758636 
L 201.699509 381.758636 
L 207.74478 381.758636 
L 213.790051 381.758636 
L 219.835321 381.758636 
L 225.880592 381.758636 
L 231.925863 381.758636 
L 237.971134 381.758636 
L 244.016405 381.758636 
L 250.061676 381.758636 
L 256.106947 381.758636 
L 262.152218 381.758636 
L 268.197489 381.758636 
L 274.242759 381.758636 
L 280.28803 381.758636 
L 286.333301 381.758636 
L 292.378572 381.758636 
L 298.423843 381.758636 
L 304.469114 381.758636 
L 310.514385 381.758636 
L 316.559656 381.758636 
L 322.604927 381.758636 
L 328.650197 381.758636 
L 334.695468 381.758636 
L 340.740739 381.758636 
L 346.78601 381.758636 
L 352.831281 381.758636 
L 358.876552 381.758636 
L 364.921823 381.758636 
L 370.967094 381.758636 
L 377.012365 381.758636 
L 383.057635 381.758636 
L 389.102906 381.758636 
L 395.148177 381.758636 
L 401.193448 381.758636 
L 407.238719 381.758636 
L 413.28399 381.758636 
L 419.329261 381.758636 
L 425.374532 381.758636 
L 431.419803 381.758636 
L 437.465073 381.758636 
L 443.510344 381.758636 
L 449.555615 381.758636 
L 455.600886 381.758636 
L 461.646157 381.758636 
L 467.691428 381.758636 
L 473.736699 381.758636 
L 479.78197 381.758636 
L 485.827241 381.758636 
L 491.872511 381.758636 
L 497.917782 381.758636 
L 503.963053 381.758636 
L 510.008324 381.758636 
L 516.053595 381.758636 
L 522.098866 381.758636 
L 528.144137 381.758636 
L 534.189408 381.758636 
L 540.234679 381.758636 
L 546.279949 381.758636 
L 552.32522 381.758636 
L 558.370491 381.758636 
L 564.415762 381.758636 
L 570.461033 381.758636 
L 576.506304 381.758636 
L 582.551575 381.758636 
L 588.596846 381.758636 
L 594.642117 381.758636 
L 600.687388 381.758636 
L 606.732658 381.758636 
L 612.777929 381.758636 
L 618.8232 381.758636 
L 624.868471 381.758636 
L 630.913742 381.758636 
L 636.959013 381.758636 
L 643.004284 381.758636 
L 649.049555 381.758636 
L 655.094826 381.758636 
L 661.140096 381.758636 
L 667.185367 381.758636 
L 673.230638 381.758636 
L 679.275909 381.758636 
" clip-path="url(#pb79a5ecdf4)" style="fill: none; stroke: #00ffff; stroke-opacity: 0.3; stroke-width: 1.5; stroke-linecap: square"/>
   </g>
   <g id="line2d_35">
    <path d="M 80.794091 663.931364 
L 86.839362 381.758636 
L 92.884633 381.758636 
L 98.929904 381.758636 
L 104.975174 381.758636 
L 111.020445 381.758636 
L 117.065716 381.758636 
L 123.110987 381.758636 
L 129.156258 381.758636 
L 135.201529 381.758636 
L 141.2468 381.758636 
L 147.292071 381.758636 
L 153.337342 381.758636 
L 159.382612 381.758636 
L 165.427883 381.758636 
L 171.473154 381.758636 
L 177.518425 381.758636 
L 183.563696 381.758636 
L 189.608967 381.758636 
L 195.654238 381.758636 
L 201.699509 381.758636 
L 207.74478 381.758636 
L 213.790051 381.758636 
L 219.835321 381.758636 
L 225.880592 381.758636 
L 231.925863 381.758636 
L 237.971134 381.758636 
L 244.016405 381.758636 
L 250.061676 381.758636 
L 256.106947 381.758636 
L 262.152218 381.758636 
L 268.197489 381.758636 
L 274.242759 381.758636 
L 280.28803 381.758636 
L 286.333301 381.758636 
L 292.378572 381.758636 
L 298.423843 381.758636 
L 304.469114 381.758636 
L 310.514385 381.758636 
L 316.559656 381.758636 
L 322.604927 381.758636 
L 328.650197 381.758636 
L 334.695468 381.758636 
L 340.740739 381.758636 
L 346.78601 381.758636 
L 352.831281 381.758636 
L 358.876552 381.758636 
L 364.921823 381.758636 
L 370.967094 381.758636 
L 377.012365 381.758636 
L 383.057635 381.758636 
L 389.102906 381.758636 
L 395.148177 381.758636 
L 401.193448 381.758636 
L 407.238719 381.758636 
L 413.28399 381.758636 
L 419.329261 381.758636 
L 425.374532 381.758636 
L 431.419803 381.758636 
L 437.465073 381.758636 
L 443.510344 381.758636 
L 449.555615 381.758636 
L 455.600886 381.758636 
L 461.646157 381.758636 
L 467.691428 381.758636 
L 473.736699 381.758636 
L 479.78197 381.758636 
L 485.827241 381.758636 
L 491.872511 381.758636 
L 497.917782 381.758636 
L 503.963053 381.758636 
L 510.008324 381.758636 
L 516.053595 381.758636 
L 522.098866 381.758636 
L 528.144137 381.758636 
L 534.189408 381.758636 
L 540.234679 381.758636 
L 546.279949 381.758636 
L 552.32522 381.758636 
L 558.370491 381.758636 
L 564.415762 381.758636 
L 570.461033 381.758636 
L 576.506304 381.758636 
L 582.551575 381.758636 
L 588.596846 381.758636 
L 594.642117 381.758636 
L 600.687388 381.758636 
L 606.732658 381.758636 
L 612.777929 381.758636 
L 618.8232 381.758636 
L 624.868471 381.758636 
L 630.913742 381.758636 
L 636.959013 381.758636 
L 643.004284 381.758636 
L 649.049555 381.758636 
L 655.094826 381.758636 
L 661.140096 381.758636 
L 667.185367 381.758636 
L 673.230638 381.758636 
L 679.275909 381.758636 
" clip-path="url(#pb79a5ecdf4)" style="fill: none; stroke: #00ffff; stroke-opacity: 0.3; stroke-width: 1.5; stroke-linecap: square"/>
   </g>
   <g id="line2d_36">
    <path d="M 80.794091 663.931364 
L 86.839362 381.758636 
L 92.884633 381.758636 
L 98.929904 381.758636 
L 104.975174 381.758636 
L 111.020445 381.758636 
L 117.065716 381.758636 
L 123.110987 381.758636 
L 129.156258 381.758636 
L 135.201529 381.758636 
L 141.2468 381.758636 
L 147.292071 381.758636 
L 153.337342 381.758636 
L 159.382612 381.758636 
L 165.427883 381.758636 
L 171.473154 381.758636 
L 177.518425 381.758636 
L 183.563696 381.758636 
L 189.608967 381.758636 
L 195.654238 381.758636 
L 201.699509 381.758636 
L 207.74478 381.758636 
L 213.790051 381.758636 
L 219.835321 381.758636 
L 225.880592 381.758636 
L 231.925863 381.758636 
L 237.971134 381.758636 
L 244.016405 381.758636 
L 250.061676 381.758636 
L 256.106947 381.758636 
L 262.152218 381.758636 
L 268.197489 381.758636 
L 274.242759 381.758636 
L 280.28803 381.758636 
L 286.333301 381.758636 
L 292.378572 381.758636 
L 298.423843 381.758636 
L 304.469114 381.758636 
L 310.514385 381.758636 
L 316.559656 381.758636 
L 322.604927 381.758636 
L 328.650197 381.758636 
L 334.695468 381.758636 
L 340.740739 381.758636 
L 346.78601 381.758636 
L 352.831281 381.758636 
L 358.876552 381.758636 
L 364.921823 381.758636 
L 370.967094 381.758636 
L 377.012365 381.758636 
L 383.057635 381.758636 
L 389.102906 381.758636 
L 395.148177 381.758636 
L 401.193448 381.758636 
L 407.238719 381.758636 
L 413.28399 381.758636 
L 419.329261 381.758636 
L 425.374532 381.758636 
L 431.419803 381.758636 
L 437.465073 381.758636 
L 443.510344 381.758636 
L 449.555615 381.758636 
L 455.600886 381.758636 
L 461.646157 381.758636 
L 467.691428 381.758636 
L 473.736699 381.758636 
L 479.78197 381.758636 
L 485.827241 381.758636 
L 491.872511 381.758636 
L 497.917782 381.758636 
L 503.963053 381.758636 
L 510.008324 381.758636 
L 516.053595 381.758636 
L 522.098866 381.758636 
L 528.144137 381.758636 
L 534.189408 381.758636 
L 540.234679 381.758636 
L 546.279949 381.758636 
L 552.32522 381.758636 
L 558.370491 381.758636 
L 564.415762 381.758636 
L 570.461033 381.758636 
L 576.506304 381.758636 
L 582.551575 381.758636 
L 588.596846 381.758636 
L 594.642117 381.758636 
L 600.687388 381.758636 
L 606.732658 381.758636 
L 612.777929 381.758636 
L 618.8232 381.758636 
L 624.868471 381.758636 
L 630.913742 381.758636 
L 636.959013 381.758636 
L 643.004284 381.758636 
L 649.049555 381.758636 
L 655.094826 381.758636 
L 661.140096 381.758636 
L 667.185367 381.758636 
L 673.230638 381.758636 
L 679.275909 381.758636 
" clip-path="url(#pb79a5ecdf4)" style="fill: none; stroke: #00ffff; stroke-opacity: 0.3; stroke-width: 1.5; stroke-linecap: square"/>
   </g>
   <g id="line2d_37">
    <path d="M 80.794091 663.931364 
L 86.839362 381.758636 
L 92.884633 381.758636 
L 98.929904 381.758636 
L 104.975174 381.758636 
L 111.020445 381.758636 
L 117.065716 381.758636 
L 123.110987 381.758636 
L 129.156258 381.758636 
L 135.201529 381.758636 
L 141.2468 381.758636 
L 147.292071 381.758636 
L 153.337342 381.758636 
L 159.382612 381.758636 
L 165.427883 381.758636 
L 171.473154 381.758636 
L 177.518425 381.758636 
L 183.563696 381.758636 
L 189.608967 381.758636 
L 195.654238 381.758636 
L 201.699509 381.758636 
L 207.74478 381.758636 
L 213.790051 381.758636 
L 219.835321 381.758636 
L 225.880592 381.758636 
L 231.925863 381.758636 
L 237.971134 381.758636 
L 244.016405 381.758636 
L 250.061676 381.758636 
L 256.106947 381.758636 
L 262.152218 381.758636 
L 268.197489 381.758636 
L 274.242759 381.758636 
L 280.28803 381.758636 
L 286.333301 381.758636 
L 292.378572 381.758636 
L 298.423843 381.758636 
L 304.469114 381.758636 
L 310.514385 381.758636 
L 316.559656 381.758636 
L 322.604927 381.758636 
L 328.650197 381.758636 
L 334.695468 381.758636 
L 340.740739 381.758636 
L 346.78601 381.758636 
L 352.831281 381.758636 
L 358.876552 381.758636 
L 364.921823 381.758636 
L 370.967094 381.758636 
L 377.012365 381.758636 
L 383.057635 381.758636 
L 389.102906 381.758636 
L 395.148177 381.758636 
L 401.193448 381.758636 
L 407.238719 381.758636 
L 413.28399 381.758636 
L 419.329261 381.758636 
L 425.374532 381.758636 
L 431.419803 381.758636 
L 437.465073 381.758636 
L 443.510344 381.758636 
L 449.555615 381.758636 
L 455.600886 381.758636 
L 461.646157 381.758636 
L 467.691428 381.758636 
L 473.736699 381.758636 
L 479.78197 381.758636 
L 485.827241 381.758636 
L 491.872511 381.758636 
L 497.917782 381.758636 
L 503.963053 381.758636 
L 510.008324 381.758636 
L 516.053595 381.758636 
L 522.098866 381.758636 
L 528.144137 381.758636 
L 534.189408 381.758636 
L 540.234679 381.758636 
L 546.279949 381.758636 
L 552.32522 381.758636 
L 558.370491 381.758636 
L 564.415762 381.758636 
L 570.461033 381.758636 
L 576.506304 381.758636 
L 582.551575 381.758636 
L 588.596846 381.758636 
L 594.642117 381.758636 
L 600.687388 381.758636 
L 606.732658 381.758636 
L 612.777929 381.758636 
L 618.8232 381.758636 
L 624.868471 381.758636 
L 630.913742 381.758636 
L 636.959013 381.758636 
L 643.004284 381.758636 
L 649.049555 381.758636 
L 655.094826 381.758636 
L 661.140096 381.758636 
L 667.185367 381.758636 
L 673.230638 381.758636 
L 679.275909 381.758636 
" clip-path="url(#pb79a5ecdf4)" style="fill: none; stroke: #00ffff; stroke-opacity: 0.3; stroke-width: 1.5; stroke-linecap: square"/>
   </g>
   <g id="line2d_38">
    <path d="M 80.794091 663.931364 
L 86.839362 381.758636 
L 92.884633 381.758636 
L 98.929904 381.758636 
L 104.975174 381.758636 
L 111.020445 381.758636 
L 117.065716 381.758636 
L 123.110987 381.758636 
L 129.156258 381.758636 
L 135.201529 381.758636 
L 141.2468 381.758636 
L 147.292071 381.758636 
L 153.337342 381.758636 
L 159.382612 381.758636 
L 165.427883 381.758636 
L 171.473154 381.758636 
L 177.518425 381.758636 
L 183.563696 381.758636 
L 189.608967 381.758636 
L 195.654238 381.758636 
L 201.699509 381.758636 
L 207.74478 381.758636 
L 213.790051 381.758636 
L 219.835321 381.758636 
L 225.880592 381.758636 
L 231.925863 381.758636 
L 237.971134 381.758636 
L 244.016405 381.758636 
L 250.061676 381.758636 
L 256.106947 381.758636 
L 262.152218 381.758636 
L 268.197489 381.758636 
L 274.242759 381.758636 
L 280.28803 381.758636 
L 286.333301 381.758636 
L 292.378572 381.758636 
L 298.423843 381.758636 
L 304.469114 381.758636 
L 310.514385 381.758636 
L 316.559656 381.758636 
L 322.604927 381.758636 
L 328.650197 381.758636 
L 334.695468 381.758636 
L 340.740739 381.758636 
L 346.78601 381.758636 
L 352.831281 381.758636 
L 358.876552 381.758636 
L 364.921823 381.758636 
L 370.967094 381.758636 
L 377.012365 381.758636 
L 383.057635 381.758636 
L 389.102906 381.758636 
L 395.148177 381.758636 
L 401.193448 381.758636 
L 407.238719 381.758636 
L 413.28399 381.758636 
L 419.329261 381.758636 
L 425.374532 381.758636 
L 431.419803 381.758636 
L 437.465073 381.758636 
L 443.510344 381.758636 
L 449.555615 381.758636 
L 455.600886 381.758636 
L 461.646157 381.758636 
L 467.691428 381.758636 
L 473.736699 381.758636 
L 479.78197 381.758636 
L 485.827241 381.758636 
L 491.872511 381.758636 
L 497.917782 381.758636 
L 503.963053 381.758636 
L 510.008324 381.758636 
L 516.053595 381.758636 
L 522.098866 381.758636 
L 528.144137 381.758636 
L 534.189408 381.758636 
L 540.234679 381.758636 
L 546.279949 381.758636 
L 552.32522 381.758636 
L 558.370491 381.758636 
L 564.415762 381.758636 
L 570.461033 381.758636 
L 576.506304 381.758636 
L 582.551575 381.758636 
L 588.596846 381.758636 
L 594.642117 381.758636 
L 600.687388 381.758636 
L 606.732658 381.758636 
L 612.777929 381.758636 
L 618.8232 381.758636 
L 624.868471 381.758636 
L 630.913742 381.758636 
L 636.959013 381.758636 
L 643.004284 381.758636 
L 649.049555 381.758636 
L 655.094826 381.758636 
L 661.140096 381.758636 
L 667.185367 381.758636 
L 673.230638 381.758636 
L 679.275909 381.758636 
" clip-path="url(#pb79a5ecdf4)" style="fill: none; stroke: #00ffff; stroke-opacity: 0.3; stroke-width: 1.5; stroke-linecap: square"/>
   </g>
   <g id="line2d_39">
    <path d="M 80.794091 663.931364 
L 86.839362 381.758636 
L 92.884633 381.758636 
L 98.929904 381.758636 
L 104.975174 381.758636 
L 111.020445 381.758636 
L 117.065716 381.758636 
L 123.110987 381.758636 
L 129.156258 381.758636 
L 135.201529 381.758636 
L 141.2468 381.758636 
L 147.292071 381.758636 
L 153.337342 381.758636 
L 159.382612 381.758636 
L 165.427883 381.758636 
L 171.473154 381.758636 
L 177.518425 381.758636 
L 183.563696 381.758636 
L 189.608967 381.758636 
L 195.654238 381.758636 
L 201.699509 381.758636 
L 207.74478 381.758636 
L 213.790051 381.758636 
L 219.835321 381.758636 
L 225.880592 381.758636 
L 231.925863 381.758636 
L 237.971134 381.758636 
L 244.016405 381.758636 
L 250.061676 381.758636 
L 256.106947 381.758636 
L 262.152218 381.758636 
L 268.197489 381.758636 
L 274.242759 381.758636 
L 280.28803 381.758636 
L 286.333301 381.758636 
L 292.378572 381.758636 
L 298.423843 381.758636 
L 304.469114 381.758636 
L 310.514385 381.758636 
L 316.559656 381.758636 
L 322.604927 381.758636 
L 328.650197 381.758636 
L 334.695468 381.758636 
L 340.740739 381.758636 
L 346.78601 381.758636 
L 352.831281 381.758636 
L 358.876552 381.758636 
L 364.921823 381.758636 
L 370.967094 381.758636 
L 377.012365 381.758636 
L 383.057635 381.758636 
L 389.102906 381.758636 
L 395.148177 381.758636 
L 401.193448 381.758636 
L 407.238719 381.758636 
L 413.28399 381.758636 
L 419.329261 381.758636 
L 425.374532 381.758636 
L 431.419803 381.758636 
L 437.465073 381.758636 
L 443.510344 381.758636 
L 449.555615 381.758636 
L 455.600886 381.758636 
L 461.646157 381.758636 
L 467.691428 381.758636 
L 473.736699 381.758636 
L 479.78197 381.758636 
L 485.827241 381.758636 
L 491.872511 381.758636 
L 497.917782 381.758636 
L 503.963053 381.758636 
L 510.008324 381.758636 
L 516.053595 381.758636 
L 522.098866 381.758636 
L 528.144137 381.758636 
L 534.189408 381.758636 
L 540.234679 381.758636 
L 546.279949 381.758636 
L 552.32522 381.758636 
L 558.370491 381.758636 
L 564.415762 381.758636 
L 570.461033 381.758636 
L 576.506304 381.758636 
L 582.551575 381.758636 
L 588.596846 381.758636 
L 594.642117 381.758636 
L 600.687388 381.758636 
L 606.732658 381.758636 
L 612.777929 381.758636 
L 618.8232 381.758636 
L 624.868471 381.758636 
L 630.913742 381.758636 
L 636.959013 381.758636 
L 643.004284 381.758636 
L 649.049555 381.758636 
L 655.094826 381.758636 
L 661.140096 381.758636 
L 667.185367 381.758636 
L 673.230638 381.758636 
L 679.275909 381.758636 
" clip-path="url(#pb79a5ecdf4)" style="fill: none; stroke: #00ffff; stroke-opacity: 0.3; stroke-width: 1.5; stroke-linecap: square"/>
   </g>
   <g id="line2d_40">
    <path d="M 80.794091 663.931364 
L 86.839362 381.758636 
L 92.884633 381.758636 
L 98.929904 381.758636 
L 104.975174 381.758636 
L 111.020445 381.758636 
L 117.065716 381.758636 
L 123.110987 381.758636 
L 129.156258 381.758636 
L 135.201529 381.758636 
L 141.2468 381.758636 
L 147.292071 381.758636 
L 153.337342 381.758636 
L 159.382612 381.758636 
L 165.427883 381.758636 
L 171.473154 381.758636 
L 177.518425 381.758636 
L 183.563696 381.758636 
L 189.608967 381.758636 
L 195.654238 381.758636 
L 201.699509 381.758636 
L 207.74478 381.758636 
L 213.790051 381.758636 
L 219.835321 381.758636 
L 225.880592 381.758636 
L 231.925863 381.758636 
L 237.971134 381.758636 
L 244.016405 381.758636 
L 250.061676 381.758636 
L 256.106947 381.758636 
L 262.152218 381.758636 
L 268.197489 381.758636 
L 274.242759 381.758636 
L 280.28803 381.758636 
L 286.333301 381.758636 
L 292.378572 381.758636 
L 298.423843 381.758636 
L 304.469114 381.758636 
L 310.514385 381.758636 
L 316.559656 381.758636 
L 322.604927 381.758636 
L 328.650197 381.758636 
L 334.695468 381.758636 
L 340.740739 381.758636 
L 346.78601 381.758636 
L 352.831281 381.758636 
L 358.876552 381.758636 
L 364.921823 381.758636 
L 370.967094 381.758636 
L 377.012365 381.758636 
L 383.057635 381.758636 
L 389.102906 381.758636 
L 395.148177 381.758636 
L 401.193448 381.758636 
L 407.238719 381.758636 
L 413.28399 381.758636 
L 419.329261 381.758636 
L 425.374532 381.758636 
L 431.419803 381.758636 
L 437.465073 381.758636 
L 443.510344 381.758636 
L 449.555615 381.758636 
L 455.600886 381.758636 
L 461.646157 381.758636 
L 467.691428 381.758636 
L 473.736699 381.758636 
L 479.78197 381.758636 
L 485.827241 381.758636 
L 491.872511 381.758636 
L 497.917782 381.758636 
L 503.963053 381.758636 
L 510.008324 381.758636 
L 516.053595 381.758636 
L 522.098866 381.758636 
L 528.144137 381.758636 
L 534.189408 381.758636 
L 540.234679 381.758636 
L 546.279949 381.758636 
L 552.32522 381.758636 
L 558.370491 381.758636 
L 564.415762 381.758636 
L 570.461033 381.758636 
L 576.506304 381.758636 
L 582.551575 381.758636 
L 588.596846 381.758636 
L 594.642117 381.758636 
L 600.687388 381.758636 
L 606.732658 381.758636 
L 612.777929 381.758636 
L 618.8232 381.758636 
L 624.868471 381.758636 
L 630.913742 381.758636 
L 636.959013 381.758636 
L 643.004284 381.758636 
L 649.049555 381.758636 
L 655.094826 381.758636 
L 661.140096 381.758636 
L 667.185367 381.758636 
L 673.230638 381.758636 
L 679.275909 381.758636 
" clip-path="url(#pb79a5ecdf4)" style="fill: none; stroke: #00ffff; stroke-opacity: 0.3; stroke-width: 1.5; stroke-linecap: square"/>
   </g>
   <g id="line2d_41">
    <path d="M 80.794091 663.931364 
L 86.839362 381.758636 
L 92.884633 381.758636 
L 98.929904 381.758636 
L 104.975174 381.758636 
L 111.020445 381.758636 
L 117.065716 381.758636 
L 123.110987 381.758636 
L 129.156258 381.758636 
L 135.201529 381.758636 
L 141.2468 381.758636 
L 147.292071 381.758636 
L 153.337342 381.758636 
L 159.382612 381.758636 
L 165.427883 381.758636 
L 171.473154 381.758636 
L 177.518425 381.758636 
L 183.563696 381.758636 
L 189.608967 381.758636 
L 195.654238 381.758636 
L 201.699509 381.758636 
L 207.74478 381.758636 
L 213.790051 381.758636 
L 219.835321 381.758636 
L 225.880592 381.758636 
L 231.925863 381.758636 
L 237.971134 381.758636 
L 244.016405 381.758636 
L 250.061676 381.758636 
L 256.106947 381.758636 
L 262.152218 381.758636 
L 268.197489 381.758636 
L 274.242759 381.758636 
L 280.28803 381.758636 
L 286.333301 381.758636 
L 292.378572 381.758636 
L 298.423843 381.758636 
L 304.469114 381.758636 
L 310.514385 381.758636 
L 316.559656 381.758636 
L 322.604927 381.758636 
L 328.650197 381.758636 
L 334.695468 381.758636 
L 340.740739 381.758636 
L 346.78601 381.758636 
L 352.831281 381.758636 
L 358.876552 381.758636 
L 364.921823 381.758636 
L 370.967094 381.758636 
L 377.012365 381.758636 
L 383.057635 381.758636 
L 389.102906 381.758636 
L 395.148177 381.758636 
L 401.193448 381.758636 
L 407.238719 381.758636 
L 413.28399 381.758636 
L 419.329261 381.758636 
L 425.374532 381.758636 
L 431.419803 381.758636 
L 437.465073 381.758636 
L 443.510344 381.758636 
L 449.555615 381.758636 
L 455.600886 381.758636 
L 461.646157 381.758636 
L 467.691428 381.758636 
L 473.736699 381.758636 
L 479.78197 381.758636 
L 485.827241 381.758636 
L 491.872511 381.758636 
L 497.917782 381.758636 
L 503.963053 381.758636 
L 510.008324 381.758636 
L 516.053595 381.758636 
L 522.098866 381.758636 
L 528.144137 381.758636 
L 534.189408 381.758636 
L 540.234679 381.758636 
L 546.279949 381.758636 
L 552.32522 381.758636 
L 558.370491 381.758636 
L 564.415762 381.758636 
L 570.461033 381.758636 
L 576.506304 381.758636 
L 582.551575 381.758636 
L 588.596846 381.758636 
L 594.642117 381.758636 
L 600.687388 381.758636 
L 606.732658 381.758636 
L 612.777929 381.758636 
L 618.8232 381.758636 
L 624.868471 381.758636 
L 630.913742 381.758636 
L 636.959013 381.758636 
L 643.004284 381.758636 
L 649.049555 381.758636 
L 655.094826 381.758636 
L 661.140096 381.758636 
L 667.185367 381.758636 
L 673.230638 381.758636 
L 679.275909 381.758636 
" clip-path="url(#pb79a5ecdf4)" style="fill: none; stroke: #00ffff; stroke-opacity: 0.3; stroke-width: 1.5; stroke-linecap: square"/>
   </g>
   <g id="patch_8">
    <path d="M 50.87 678.04 
L 50.87 367.65 
" style="fill: none; stroke: #000000; stroke-width: 0.8; stroke-linejoin: miter; stroke-linecap: square"/>
   </g>
   <g id="patch_9">
    <path d="M 709.2 678.04 
L 709.2 367.65 
" style="fill: none; stroke: #000000; stroke-width: 0.8; stroke-linejoin: miter; stroke-linecap: square"/>
   </g>
   <g id="patch_10">
    <path d="M 50.87 678.04 
L 709.2 678.04 
" style="fill: none; stroke: #000000; stroke-width: 0.8; stroke-linejoin: miter; stroke-linecap: square"/>
   </g>
   <g id="patch_11">
    <path d="M 50.87 367.65 
L 709.2 367.65 
" style="fill: none; stroke: #000000; stroke-width: 0.8; stroke-linejoin: miter; stroke-linecap: square"/>
   </g>
   <g id="text_23">
    <!-- Differences Over Generations -->
    <g transform="translate(291.045625 361.65) scale(0.12 -0.12)">
     <use xlink:href="#DejaVuSans-44"/>
     <use xlink:href="#DejaVuSans-69" x="77.001953"/>
     <use xlink:href="#DejaVuSans-66" x="104.785156"/>
     <use xlink:href="#DejaVuSans-66" x="139.990234"/>
     <use xlink:href="#DejaVuSans-65" x="175.195312"/>
     <use xlink:href="#DejaVuSans-72" x="236.71875"/>
     <use xlink:href="#DejaVuSans-65" x="275.582031"/>
     <use xlink:href="#DejaVuSans-6e" x="337.105469"/>
     <use xlink:href="#DejaVuSans-63" x="400.484375"/>
     <use xlink:href="#DejaVuSans-65" x="455.464844"/>
     <use xlink:href="#DejaVuSans-73" x="516.988281"/>
     <use xlink:href="#DejaVuSans-20" x="569.087891"/>
     <use xlink:href="#DejaVuSans-4f" x="600.875"/>
     <use xlink:href="#DejaVuSans-76" x="679.585938"/>
     <use xlink:href="#DejaVuSans-65" x="738.765625"/>
     <use xlink:href="#DejaVuSans-72" x="800.289062"/>
     <use xlink:href="#DejaVuSans-20" x="841.402344"/>
     <use xlink:href="#DejaVuSans-47" x="873.189453"/>
     <use xlink:href="#DejaVuSans-65" x="950.679688"/>
     <use xlink:href="#DejaVuSans-6e" x="1012.203125"/>
     <use xlink:href="#DejaVuSans-65" x="1075.582031"/>
     <use xlink:href="#DejaVuSans-72" x="1137.105469"/>
     <use xlink:href="#DejaVuSans-61" x="1178.21875"/>
     <use xlink:href="#DejaVuSans-74" x="1239.498047"/>
     <use xlink:href="#DejaVuSans-69" x="1278.707031"/>
     <use xlink:href="#DejaVuSans-6f" x="1306.490234"/>
     <use xlink:href="#DejaVuSans-6e" x="1367.671875"/>
     <use xlink:href="#DejaVuSans-73" x="1431.050781"/>
    </g>
   </g>
  </g>
 </g>
 <defs>
  <clipPath id="p3dd08519f4">
   <rect x="50.87" y="26.88" width="658.33" height="310.39"/>
  </clipPath>
  <clipPath id="pb79a5ecdf4">
   <rect x="50.87" y="367.65" width="658.33" height="310.39"/>
  </clipPath>
 </defs>
</svg>
